<svg id="Layer_1" data-name="Layer 1" xmlns="http://www.w3.org/2000/svg" viewBox="0 0 273 216"><defs><style>.cls-1{fill:#fff;}.cls-2{fill:#1d70b7;}.cls-3,.cls-4,.cls-5,.cls-7,.cls-8,.cls-9{fill:none;stroke:#2d2e82;stroke-linecap:round;}.cls-3,.cls-4,.cls-7,.cls-8,.cls-9{stroke-linejoin:round;}.cls-3,.cls-5,.cls-7,.cls-9{stroke-width:1.25px;}.cls-4{stroke-width:0.9px;}.cls-5{stroke-miterlimit:1;}.cls-6{fill:#29235c;}.cls-7{stroke-dasharray:4.24;}.cls-8{stroke-width:1.06px;}.cls-9{stroke-dasharray:2.69 3.59;}</style></defs><title>quiz-bg-white</title><rect class="cls-1" width="273" height="216"/><path class="cls-2" d="M101.34,38.73l-.6-1.13c0-.1-.81-1.28-.86-1.38-.22-.41-1.3-2.2-1.47-2.51l-.65-1.23c-.17-.31-.94-2-1.1-2.31a1.4,1.4,0,0,1-.06-.37,6.83,6.83,0,0,0,.29-.68l.3-.42a4.09,4.09,0,0,1,.42-1s.35-.32.45-.38l.11,0c.41-.22,1.69-.77,1.82-.84s.87-.33,1-.38a1.58,1.58,0,0,0,.52,0s.58.09.74.14l.31.1.27.25.15,0a1.55,1.55,0,0,1,.58.35l.29.24.21.15.71,1.33a1.34,1.34,0,0,1,0,.53c.06.11-.08.84,0,.94l.07.36a12.35,12.35,0,0,1,1.32,0l.31.1.37.19.47.15.27.25.92,1.75c.06.1.06.36.12.46a12.8,12.8,0,0,1,0,1.3,1.45,1.45,0,0,0,0,.68l-.1.31v.26c-.07.17-.22.64-.26.8a5.34,5.34,0,0,0-.25.52c-.1.06-.25.53-.35.58a6.23,6.23,0,0,1-.6.85,5.2,5.2,0,0,1-.53.54,2.1,2.1,0,0,1-.36.32,5.14,5.14,0,0,1-.91.76c-.11,0-1,.64-1.3.82l-.62.33H103C102.8,41,101.56,39.14,101.34,38.73Zm-1.6-4,.43.82c.11.2,1,1.43,1.14,1.63l.7,1.34c.06.1.6.86.71,1.07a7.41,7.41,0,0,0,.48.66l.32.1.94-.5.36-.32c.1-.06.56-.43.66-.49s.56-.43.56-.43c.15-.21.42-.49.57-.7a1.33,1.33,0,0,0,.35-.58c.11,0,.2-.37.2-.37l.34-1.1a6.59,6.59,0,0,1,.08-.83c0-.1,0-.42,0-.52a2,2,0,0,0-.1-.74l-.55-1a1,1,0,0,1-.26-.26c-.06-.1-.24-.13-.39-.18s-.58-.09-.68,0l-.78,0c-.1.06-.87.33-1.08.44l-.21-.15-.11-.2,0-.16c.05-.16.4-.74.44-.89L104,31c0-.1,0-.41,0-.41l-.06-.37V30a1.29,1.29,0,0,1-.06-.36l-.38-.72c0-.1-.37-.46-.43-.56a1.1,1.1,0,0,0-.27-.25,4.37,4.37,0,0,0-.52-.25l-.32-.09a2.48,2.48,0,0,0-.83-.09,1.29,1.29,0,0,0-.36.06c-.1.06-.69.24-.8.29l-.82.44c-.2.11-.66.48-.76.54s-.3.42-.41.48l-.48.38c-.1.06-.25.27-.35.32l1.69,3.18C98.92,33.44,99.68,34.61,99.74,34.72Zm-1.08-4.3.46-.38.25-.26c.11-.06.36-.32.46-.38l.21-.11c.2-.11,1-.39,1-.39a1.62,1.62,0,0,1,.53,0,1,1,0,0,1,.42,0,.4.4,0,0,1,.21.15,2,2,0,0,1,.48.41l.11.2a4.2,4.2,0,0,1,.12.73c0,.15-.18,1.14-.24,1.31l-.16.21-.35.32-.15.22c-.1.05-.51.53-.61.58l-.14.47a.49.49,0,0,0-.27,0l-.15-.05c-.06-.1-.38-.46-.43-.56s-.27-.25-.32-.35l-.27-.26a4.2,4.2,0,0,1-.69-.81l-.5-.92Zm2.76,4.45c.11,0,.2-.37.31-.42s.5-.53.5-.53l.72-.39c.1-.05.47-.11.57-.17a2.12,2.12,0,0,1,.8,0,4.34,4.34,0,0,1,.57.09l.32.1.21.15a2,2,0,0,1,.48.4l.38.72a4.5,4.5,0,0,1,0,.78s-.1.32,0,.42l-.05.16,0,.41-.2.63-.15.21-.11.33-.15.21-.46.37-.15.22-.11,0-.25.27-.51.27c-.17-.31-1.14-1.9-1.31-2.2A8.68,8.68,0,0,0,102,36l-.32-.36-.32-.61Zm-1.08-4c0,.11.32.36.37.46l.16.05c.1-.05.3-.42.4-.48l.36-.32a1.87,1.87,0,0,0,.32-.43l-.22-.41-.33-.09a2.29,2.29,0,0,0-.47.12l-.92.49Zm3.34,4.81c.11.2.59.87.7,1.07l.21-.11.25-.26.38-.34.19-.62a1.58,1.58,0,0,0,0-.42l-.27-.51a1.47,1.47,0,0,1-.27-.26.4.4,0,0,0-.21-.15,4.45,4.45,0,0,1-.8,0,1.87,1.87,0,0,0-.62.07l-.31.16Z"/><path class="cls-2" d="M167.45,114.3l1.14.57,1.51.61c.42.21,2.35,1,2.66,1.19l1.25.61c.31.16,1.93,1.09,2.24,1.24a1.22,1.22,0,0,1,.26.26s.11.57.16.73V120a4.12,4.12,0,0,1,.26,1,4.13,4.13,0,0,1-.16.58l-.05.1c-.2.42-.93,1.62-1,1.74s-.51.78-.56.89a1.76,1.76,0,0,0-.42.31s-.52.26-.67.32l-.31.1-.37-.05-.15.05a1.49,1.49,0,0,1-.68.06l-.37,0h-.26l-1.36-.67a1.36,1.36,0,0,1-.3-.43c-.1-.06-.42-.73-.52-.78l-.26-.26c-.21.16-.9.75-1.05.81l-.31.1-.42.06-.46.15-.37,0-1.77-.87c-.1,0-.26-.26-.36-.31a9.91,9.91,0,0,1-.79-1,1.48,1.48,0,0,0-.37-.57l-.1-.31-.16-.2c0-.18-.2-.65-.25-.8a3.81,3.81,0,0,0-.11-.58c.05-.1-.1-.57,0-.67a7.35,7.35,0,0,1,0-1,5.65,5.65,0,0,1,.11-.75,2.86,2.86,0,0,1,.1-.47,5.13,5.13,0,0,1,.31-1.14c.05-.11.41-1.1.58-1.43l.31-.62.2-.16C165,113.33,167,114.1,167.45,114.3Zm3.65,2.32-.84-.41c-.2-.1-1.66-.56-1.87-.67l-1.35-.66c-.11-.06-1-.36-1.2-.47a6.87,6.87,0,0,0-.78-.25l-.31.1-.48,1-.1.47c0,.1-.2.67-.26.78s-.2.68-.2.68c0,.26-.06.64-.06.9a1.5,1.5,0,0,0,.06.68c-.05.1,0,.41,0,.41l.37,1.09a6.36,6.36,0,0,1,.42.73c.1.05.21.36.31.41s.51.54.51.54l1,.51a1.18,1.18,0,0,1,.36,0c.1.06.27,0,.43-.07s.51-.26.57-.37l.62-.47c0-.1.51-.78.62-1h.26l.2.1.06.16c.05.15.1.83.16,1l.1.32c.11.05.21.36.21.36l.26.26.16.2a1.51,1.51,0,0,1,.26.26l.73.36c.1.05.57.16.68.21a1.18,1.18,0,0,0,.36,0,3.54,3.54,0,0,0,.57-.11l.31-.1a2.65,2.65,0,0,0,.73-.42,1.22,1.22,0,0,0,.26-.26c0-.11.42-.6.47-.7l.41-.84c.11-.2.26-.78.31-.88s0-.52,0-.62l.16-.6c.06-.1.05-.36.11-.47l-3.23-1.59Zm3.38,2.86-.16.58,0,.36c-.05.11-.1.47-.15.57l-.1.21c-.1.21-.57.89-.57.89a1.72,1.72,0,0,1-.42.33c-.06.11-.37.21-.37.21a.42.42,0,0,1-.26,0,1.75,1.75,0,0,1-.62,0l-.21-.1a5,5,0,0,1-.52-.52c-.05-.15-.53-1-.57-1.21v-.26l.1-.47v-.26c0-.1.1-.72.15-.83l-.15-.47a.39.39,0,0,0,.2-.15l.16-.06c.1.06.57.16.67.21s.37.05.47.1l.37,0a4.49,4.49,0,0,1,1,.26l.93.46Zm-4.84-2c-.06.11.05.42,0,.52a2.49,2.49,0,0,1-.1.73l-.36.73c-.05.1-.31.36-.36.47a2,2,0,0,1-.64.49,4.44,4.44,0,0,1-.51.26l-.32.11h-.26a2,2,0,0,1-.62-.05l-.73-.36a3.9,3.9,0,0,1-.47-.62s-.1-.31-.21-.36l-.05-.16-.21-.36-.21-.63V118l-.1-.33v-.26l.15-.57v-.26l.05-.1.05-.37.26-.52c.31.16,2,.87,2.34,1,0,0,.79.25,1.15.31l.47.1.62.31Zm3.23,2.64c-.1-.06-.47-.11-.57-.16l-.16.06c0,.1,0,.52,0,.62l-.1.47a2,2,0,0,0,0,.54l.42.2.32-.12a2.33,2.33,0,0,0,.31-.37l.46-.94Zm-5.52-2c-.21-.1-1-.36-1.2-.46l-.1.2-.05.37-.11.49.21.62a1.42,1.42,0,0,0,.21.36l.52.26a1.18,1.18,0,0,1,.36,0,.42.42,0,0,0,.26,0,4.42,4.42,0,0,1,.64-.49,2.21,2.21,0,0,0,.46-.42l.16-.31Z"/><path class="cls-2" d="M17.36,77.63l-.16-.21a1.18,1.18,0,0,1,.05-.36c.05-.11.35-1,.45-1.2l.16-.32c.05-.1.41-.31.46-.42s.62-.21.67-.31a5.33,5.33,0,0,0,.52-.27l.21-.16.15,0,.23-.15.26-.26.36-.21.21-.16.3-.37.16-.05h.26c.26,0,1,.09,1,.09l1,.47c.1,0,.47.36.57.41s.11.31.11.31L19,85.25s-.42.06-.47.16l-.21.16-.15.05-.47.42a.5.5,0,0,1-.46.16L16,85.58l-.36,0-.52-.25L15,85.12v-.26c.05-.1.31-.88.36-1,.2-.42,1.81-4,2-4.45.11-.2.45-1.17.55-1.38C17.83,78,17.46,77.68,17.36,77.63Zm-1.47,7,.53.25a4,4,0,0,0,.67.2l.46-.68,4.64-9.48a.44.44,0,0,0-.16-.2l-.73-.36-.31.11-.37.21-.31.1-.41.32-.15,0c-.16.06-1,.57-1.11.63l-.21.15-.05.11c-.05.1-.25.78-.3.88.1.06.59.43.7.48l.11.31-.41.83c-.05.11-.3.87-.35,1-.35.73-1.93,4.23-2.29,5Z"/><path class="cls-2" d="M210.11,119.81l-.16-.21a1.18,1.18,0,0,1,.05-.36c.05-.11.36-1,.46-1.2l.15-.31c0-.11.41-.32.47-.42s.62-.22.67-.32.52-.27.52-.27l.2-.15.16-.06.22-.15.26-.26.36-.21.21-.16.31-.36.15-.06h.26c.26,0,1,.1,1,.1l1,.46c.11.06.47.36.58.42s.1.31.1.31l-5.29,10.83s-.42.06-.47.16l-.2.16-.16,0-.46.42a.49.49,0,0,1-.47.16l-1.27-.62-.37-.05-.52-.25,0-.16V127c0-.1.3-.88.35-1,.21-.41,1.81-4,2-4.44.1-.21.44-1.18.55-1.39C210.58,120.17,210.22,119.86,210.11,119.81Zm-1.46,7,.52.25a4.3,4.3,0,0,0,.68.2l.46-.68,4.63-9.48a.37.37,0,0,0-.16-.2l-.73-.36-.31.11-.36.21-.31.11-.41.31-.16,0c-.16.06-.95.57-1.11.63l-.2.16-.05.1c0,.1-.26.78-.31.89.11.05.6.42.7.47l.11.31-.41.83c0,.11-.29.87-.34,1-.36.73-1.94,4.23-2.3,5Z"/><path class="cls-2" d="M72.08,161.16l-.4-.57c-.07-.1-.18-.47-.25-.56l-.39-.58.23-1.29.19-.55.18-1v-.42l.12-.65a4.39,4.39,0,0,1,0-.58v-.42l0-.34c-.06-.09,0-.67-.11-.77s-.14-.61-.2-.71,0-.67-.11-.77l-.73-1-.22-.13-.39.27s-.12.23-.06.32l0,.26a2,2,0,0,0,.14.61l.2.29,0,.25-.25.46-.06.32-.09.07,0,.26,0,.16-.09.06-.55.24c-.09.06-.83.43-.92.5s-.42,0-.52.07l-.46-.67c-.07-.1-.23-.55-.3-.64l0-.26a2,2,0,0,0-.13-.61l-.25-.56,0-.26a4.39,4.39,0,0,0,0-.58l.18-1c.1-.07.38-.68.47-.75l.13-.23c.09-.06.57-.81.66-.88l.13-.22L70,147.12a9.2,9.2,0,0,1,1.29-.18l.16,0h.42c.16,0,.58,0,.64.12l.23.12.39.16c.06.09.6.46.67.55s.49.51.62.7l.07.1.23.54c.07.1.23.55.3.64.1.36.22,2,.34,2.34.07.09,0,.58,0,.67s.08.94.15,1,0,1,0,1.16l.16,0,1.44-1,.23.13a1.64,1.64,0,0,1,.45.25l1.07,1.55-.21,1.13c0,.16-.18.55-.21.71-.38.27-2.26,1.84-2.64,2.11-.1.06-.32.36-.42.42l-1.81,1.26c-.26,0-.61.14-.87.17C72.63,161.77,72.14,161.26,72.08,161.16ZM73.2,161,75,159.7c.09-.07.89-.76,1-.82l.77-.53c.19-.13.79-.69.89-.76l-.81-1.16L74.56,158c-.1.07-.21.31-.3.38l-.1.07h-.27l-.16,0-.2-.28s0-.26.06-.33l.21-.71,0-.16.06-.74.09-.49c-.07-.09.08-.48,0-.58l0-.26c0-.16,0-1.09,0-1.25l0-.58c-.06-.1,0-.86-.09-1v-.42a5.48,5.48,0,0,0-.34-.89,4.86,4.86,0,0,1-.24-.55l-.26-.38c-.07-.09-.42-.41-.42-.41l-.07-.1c-.07-.09-.73-.65-.8-.75l-.16,0a2.35,2.35,0,0,0-.84,0,1.89,1.89,0,0,0-.77.11c-.1.06-.61.14-.71.2l-.28.2c-.19.13-.73.79-.83.85a3.91,3.91,0,0,0-.37.68s-.06.33-.16.39l0,.17c0,.16,0,.85,0,1l0,.26a2.8,2.8,0,0,1,.14.61,2.48,2.48,0,0,1,.17.45l.4.57.76-.52c-.06-.1-.1-.36-.17-.45a8.39,8.39,0,0,1-.27-1.22l0-.26.06-.32s.06-.33.16-.39l.11-.25.57-.4a5.55,5.55,0,0,1,.56-.21l.81.15.22.12.73,1a5.21,5.21,0,0,1,.27.81l0,.25.1.36,0,.16,0,.26.1.35a2.15,2.15,0,0,1,.12.79s-.06.32,0,.42a9.12,9.12,0,0,1,0,1c.07.09-.21.71-.15.81l0,.58s0,.42-.09.48-.18.55-.21.71l-.13.23-.09.49c.07.09.3.64.45.85l.72,1.05Z"/><path class="cls-2" d="M226.79,50.89l-.51-.48c-.08-.08-.27-.42-.35-.5l-.51-.48,0-1.32.07-.58,0-1-.09-.41,0-.66a4.27,4.27,0,0,1-.09-.57l-.1-.41,0-.34c-.08-.08-.18-.66-.26-.74s-.26-.57-.35-.65-.18-.65-.26-.73l-.92-.88-.25-.08-.32.34s-.08.24,0,.32l.09.25a2.22,2.22,0,0,0,.26.57l.25.24.09.24-.15.5v.33l-.09.08.09.25v.16l-.08.09-.49.34c-.08.08-.72.59-.81.67s-.4.09-.48.18l-.59-.56c-.09-.08-.34-.49-.43-.57l-.08-.24a2.06,2.06,0,0,0-.26-.57l-.36-.51-.09-.24a4.27,4.27,0,0,0-.09-.57l0-1c.08-.08.23-.74.31-.83l.08-.25c.08-.08.39-.91.47-1l.08-.25,1.44-1.51a10.39,10.39,0,0,1,1.22-.44h.17l.41-.09c.16,0,.57-.09.65,0l.25.07.42.08c.08.08.68.33.76.41a8.11,8.11,0,0,1,.75.55l.09.08.34.49c.08.08.34.49.42.57.17.32.62,1.87.81,2.21.08.08.09.58.18.66s.26.89.35,1,.19,1,.19,1.15h.16L230.29,43l.25.07a1.71,1.71,0,0,1,.49.16l1.36,1.3,0,1.15c0,.16-.07.57-.07.74-.32.33-1.83,2.26-2.16,2.59-.08.09-.23.42-.31.5l-1.53,1.6c-.24.09-.57.26-.81.35C227.45,51.37,226.87,51,226.79,50.89Zm1.05-.43,1.53-1.6c.08-.09.72-.92.8-1l.64-.67c.16-.17.64-.83.72-.92l-1-1-1.92,2c-.08.08-.14.35-.22.43l-.08.09-.26.07h-.17l-.25-.24s-.09-.24,0-.33l.07-.74v-.16l-.1-.74v-.49c-.08-.08,0-.5-.09-.58l-.09-.24c0-.17-.27-1.06-.27-1.23l-.1-.57c-.08-.08-.2-.84-.28-.92l-.09-.4a5.3,5.3,0,0,0-.52-.81,5.78,5.78,0,0,1-.34-.49l-.33-.32c-.09-.08-.5-.32-.5-.32l-.09-.08c-.08-.08-.85-.49-.93-.57h-.16a2.41,2.41,0,0,0-.82.19,2,2,0,0,0-.74.26c-.08.09-.57.26-.65.34l-.24.26c-.16.17-.55.91-.63,1a4.13,4.13,0,0,0-.23.74s0,.33-.07.41V42c0,.16.2.83.2,1l.09.24a2.65,2.65,0,0,1,.26.57,2.3,2.3,0,0,1,.26.41l.5.48.64-.67c-.08-.08-.17-.33-.25-.41a7.37,7.37,0,0,1-.52-1.14l-.09-.24v-.33s0-.33.08-.41l.06-.27.48-.5a3.78,3.78,0,0,1,.5-.33h.82l.25.07.92.88a5.14,5.14,0,0,1,.43.73l.09.25.17.32v.17l.09.24.17.33a1.86,1.86,0,0,1,.28.75s0,.33.1.41a9,9,0,0,1,.18,1c.09.08-.06.74,0,.82l.1.57s.09.41,0,.5-.07.57-.07.74l-.07.25v.49c.08.08.42.56.61.74l.92.88Z"/><path class="cls-2" d="M28.63,141.32a1.77,1.77,0,0,1,.15.65,1,1,0,0,1-.38.82c-.26.24-.43.35-.53.34-.76-.13-1.25-.73-1.47-1.81a18.13,18.13,0,0,0-.83-2.94l-1.57.17a2.65,2.65,0,0,0-1.41.59,25.18,25.18,0,0,0-.62,2.57,17.49,17.49,0,0,1-.72,2.59c-.12.28-.38.36-.79.25s-.79-.39-.82-.68a5.63,5.63,0,0,1,.46-2.38,9.5,9.5,0,0,0,.72-2.43c0-.14-.09-.3-.31-.46s-.33-.3-.33-.39a.4.4,0,0,1,.1-.25,1,1,0,0,1,.48-.22c.26-.05.4-.14.43-.25.26-.78.67-2.23,1.24-4.34a37.58,37.58,0,0,1,1.29-4.24.56.56,0,0,1,.57-.33.86.86,0,0,1,.59.2,2.63,2.63,0,0,1,.86,1.65c.11.63.21,1.27.3,1.9A73.12,73.12,0,0,0,28.63,141.32ZM25.15,137a15.07,15.07,0,0,0-.34-1.92c-.17-.62-.32-1.24-.48-1.85-.44,1.29-.81,2.59-1.13,3.88A15.38,15.38,0,0,1,25.15,137Z"/><path class="cls-2" d="M161.6,159.47a2.21,2.21,0,0,1,.41.52,1.07,1.07,0,0,1,0,.91c-.13.32-.25.5-.34.52-.74.21-1.44-.13-2.09-1a18.24,18.24,0,0,0-2-2.33l-1.36.82a2.62,2.62,0,0,0-1,1.11,24.36,24.36,0,0,0,.5,2.6,16,16,0,0,1,.43,2.66c0,.3-.19.48-.61.55s-.88,0-1-.28a5.62,5.62,0,0,1-.57-2.35,10.85,10.85,0,0,0-.36-2.51c-.05-.13-.21-.23-.48-.29s-.42-.13-.46-.21a.35.35,0,0,1,0-.27c0-.11.14-.24.34-.4s.31-.3.29-.41c-.09-.82-.32-2.3-.69-4.46a37.81,37.81,0,0,1-.59-4.39.55.55,0,0,1,.38-.54.86.86,0,0,1,.61-.07,2.73,2.73,0,0,1,1.48,1.14l1.06,1.61A72.72,72.72,0,0,0,161.6,159.47Zm-5-2.52a14.73,14.73,0,0,0-1.11-1.61c-.41-.49-.81-1-1.2-1.48.14,1.36.33,2.69.58,4A16.47,16.47,0,0,1,156.61,157Z"/><path class="cls-2" d="M78.27,101.42c.22-.36.6-.43,1.13-.23a2.7,2.7,0,0,0,1.4.3,9.84,9.84,0,0,0,6-4.63,11.28,11.28,0,0,0,1.49-3.61,19.63,19.63,0,0,0,.39-2.07,3.86,3.86,0,0,0-.34-2.13c-.14-.21-.28-.42-.43-.62a.64.64,0,0,1,0-.69,1,1,0,0,1,.57-.44.48.48,0,0,1,.56.08,4.18,4.18,0,0,1,.63.74,8,8,0,0,1,.58,3.63c0,.42,0,.85,0,1.29A5.2,5.2,0,0,1,90,94.22,27.29,27.29,0,0,1,88.78,97,15.19,15.19,0,0,1,88,98.36,10.62,10.62,0,0,1,82.28,103a3.9,3.9,0,0,1-3.35-.12,1.92,1.92,0,0,1-.79-1C78.08,101.81,78.13,101.64,78.27,101.42Z"/><path class="cls-2" d="M133.67,67.17a44.89,44.89,0,0,0-2.9,5.3,28.54,28.54,0,0,0,1.54,2.69A10.88,10.88,0,0,1,133.65,78a.62.62,0,0,0-.39.32c-.14.2-.28.29-.42.28a1.87,1.87,0,0,1-1.41-.77,8,8,0,0,1-.79-1.54,5.2,5.2,0,0,0-.91-1.44,17.06,17.06,0,0,0-1.66,3.79,18.28,18.28,0,0,1-1.61,3.75c-.84.1-1.32,0-1.45-.36a1.25,1.25,0,0,1-.08-.42,2.5,2.5,0,0,1,.26-1l.42-1a40.25,40.25,0,0,1,3.09-7.19,12,12,0,0,0-2.5-3.3.33.33,0,0,1-.12-.23c0-.29.22-.53.68-.71a1.32,1.32,0,0,1,.51-.1,1.73,1.73,0,0,1,1.34.85c.64.84,1,1.29,1,1.33s.44-.79,1.1-2a10.64,10.64,0,0,1,1.28-2,2.84,2.84,0,0,1,1.16-.07.77.77,0,0,1,.55.74A.52.52,0,0,1,133.67,67.17Z"/><path class="cls-2" d="M195.26,177.93a43,43,0,0,0,6-.81,25.55,25.55,0,0,0,1.26-2.83,10.74,10.74,0,0,1,1.46-2.72.63.63,0,0,0,.49.12.48.48,0,0,1,.46.17,1.85,1.85,0,0,1,.22,1.59,8,8,0,0,1-.77,1.55,5.09,5.09,0,0,0-.62,1.59,17.26,17.26,0,0,0,4-.91,17.43,17.43,0,0,1,4-.92q.86.93.57,1.38a1.24,1.24,0,0,1-.29.31,2.46,2.46,0,0,1-.95.37c-.61.14-1,.22-1,.25a40.64,40.64,0,0,1-7.63,1.77,12.32,12.32,0,0,0-1.18,4,.32.32,0,0,1-.11.23c-.23.18-.56.14-1-.13a1.42,1.42,0,0,1-.38-.35,1.75,1.75,0,0,1-.1-1.59c.3-1,.45-1.54.46-1.61s-.9.11-2.3.32a10.77,10.77,0,0,1-2.35.14,2.8,2.8,0,0,1-.75-.9.78.78,0,0,1,.27-.87A.48.48,0,0,1,195.26,177.93Z"/><polygon class="cls-3" points="189.71 32.38 163.48 19.26 150.62 44.96 189.71 32.38"/><polygon class="cls-4" points="165.85 26.38 175.72 31.31 161.02 36.05 165.85 26.38"/><line class="cls-3" x1="161.81" y1="22.6" x2="163.67" y2="23.53"/><line class="cls-3" x1="160.53" y1="25.16" x2="162.39" y2="26.09"/><line class="cls-3" x1="159.25" y1="27.71" x2="161.11" y2="28.64"/><line class="cls-3" x1="157.98" y1="30.26" x2="159.84" y2="31.19"/><line class="cls-3" x1="156.7" y1="32.81" x2="158.56" y2="33.74"/><line class="cls-3" x1="155.42" y1="35.37" x2="157.28" y2="36.29"/><line class="cls-3" x1="154.15" y1="37.92" x2="156.01" y2="38.85"/><line class="cls-3" x1="152.87" y1="40.47" x2="154.73" y2="41.4"/><line class="cls-3" x1="184.43" y1="29.74" x2="183.5" y2="31.59"/><line class="cls-3" x1="181.88" y1="28.46" x2="180.95" y2="30.32"/><line class="cls-3" x1="179.33" y1="27.18" x2="178.4" y2="29.04"/><line class="cls-3" x1="176.77" y1="25.91" x2="175.85" y2="27.76"/><line class="cls-3" x1="174.22" y1="24.63" x2="173.29" y2="26.49"/><line class="cls-3" x1="171.67" y1="23.35" x2="170.74" y2="25.21"/><line class="cls-3" x1="169.12" y1="22.08" x2="168.19" y2="23.93"/><line class="cls-3" x1="166.56" y1="20.8" x2="165.64" y2="22.66"/><path class="cls-3" d="M96.71,169.68a4.18,4.18,0,1,0,.71-5.87A4.18,4.18,0,0,0,96.71,169.68Z"/><path class="cls-3" d="M88.58,179.16a4.18,4.18,0,1,0,.71-5.87A4.17,4.17,0,0,0,88.58,179.16Z"/><path class="cls-3" d="M97.28,170.28c-1.2-1.54-2.49-1.08-3.18-.44-.92.84-.9,1.76.34,3.35"/><path class="cls-3" d="M100,162.92s-9.11,1.08-12.46,1.82-5.34,2.83-3.9,4.67l.78,1"/><path class="cls-3" d="M87.62,177.93s-9.11,1.08-12.47,1.82-5.33,2.83-3.89,4.67.78,1,.78,1"/><path class="cls-3" d="M105.85,74.65l-2.52-7.34s-1.16-2.32.47-2.88,2.3,1.83,2.3,1.83l3.67,10.66s1.5,3.41-.88,4.23-3.19-.86-3.68-2.28L99.64,62.74s-1.08-3.42,1.89-4.44A3.27,3.27,0,0,1,106,60.53c.37,1.09,4.15,12,4.15,12"/><path class="cls-3" d="M256.41,144.83l-7-3.25s-2.48-.77-1.76-2.34,2.91-.38,2.91-.38l10.24,4.71s3.5,1.27,2.45,3.56-2.83,1.72-4.2,1.09l-15.5-7.14s-3.21-1.58-1.9-4.43a3.27,3.27,0,0,1,4.73-1.71l11.57,5.32"/><circle class="cls-3" cx="224.56" cy="16.4" r="7.66" transform="translate(47.07 154.93) rotate(-42.15)"/><path class="cls-3" d="M228.31,25.67a10,10,0,1,1,5.53-13A10,10,0,0,1,228.31,25.67Z"/><rect class="cls-3" x="207.55" y="16.01" width="3.58" height="13.06" transform="translate(151.9 -180.02) rotate(68.02)"/><circle class="cls-3" cx="18.06" cy="47.29" r="7.66" transform="translate(-30.76 60.68) rotate(-84.44)"/><circle class="cls-3" cx="18.06" cy="47.29" r="10.01" transform="translate(-26.3 22.89) rotate(-40.28)"/><rect class="cls-3" x="26.7" y="53.44" width="3.58" height="13.06" transform="translate(-31.61 31.76) rotate(-39.44)"/><polygon class="cls-3" points="28.93 97.68 27.23 96.31 15.46 111.05 14.2 116.12 18.87 113.78 30.64 99.04 28.93 97.68"/><path class="cls-3" d="M40.7,82.93h0a3,3,0,0,0-4.26.48L26.56,95.78l4.74,3.79L41.18,87.2A3,3,0,0,0,40.7,82.93Z"/><path class="cls-3" d="M41.14,87.25l.49.38a1.92,1.92,0,0,1,.3,2.69l-5.39,6.75"/><path class="cls-3" d="M37.58,97.89A1.32,1.32,0,1,1,37.37,96,1.32,1.32,0,0,1,37.58,97.89Z"/><path class="cls-3" d="M61.26,75.9A20.14,20.14,0,0,0,66,36.19L56.51,75.33A20.06,20.06,0,0,0,61.26,75.9Z"/><path class="cls-3" d="M67.38,30.52,66,36.19a20.14,20.14,0,1,1-9.49,39.14L55.13,81A26,26,0,1,0,67.38,30.52Z"/><line class="cls-3" x1="53.04" y1="89.63" x2="68.35" y2="26.53"/><line class="cls-3" x1="56.94" y1="88.27" x2="58.52" y2="81.74"/><path class="cls-3" d="M65.41,38.63A17.63,17.63,0,1,0,57.1,72.9"/><path class="cls-3" d="M65.41,38.63a8,8,0,0,0-2.81-.17c-6.67.74-12.68,9.09-13.43,18.65-.63,8.15,2.77,14.54,7.93,15.79"/><path class="cls-3" d="M65.41,38.63a2.3,2.3,0,0,0-1.46.15c-3.61,1.49-7.74,10.3-9.23,19.68-1.27,8-.2,13.82,2.38,14.44"/><path class="cls-3" d="M65.41,38.63l-.12.48-5,20.69c-1.9,7.85-3.18,13.1-3.17,13.1"/><path class="cls-3" d="M65.41,38.63a2.31,2.31,0,0,1,1.23.81c2.52,3,2.16,12.69-.82,21.71-2.53,7.69-6.15,12.38-8.72,11.75"/><path class="cls-3" d="M65.41,38.63A8.16,8.16,0,0,1,68,39.76c5.59,3.72,7.1,13.9,3.38,22.74C68.2,70,62.25,74.15,57.09,72.9"/><path class="cls-3" d="M65.41,38.63a17.24,17.24,0,0,1,3.92,1.46A17.63,17.63,0,0,1,57.09,72.9"/><line class="cls-3" x1="78.29" y1="60.31" x2="44.04" y2="51.94"/><path class="cls-3" d="M52.32,92.68H72.79S67.68,88,61.18,88H53.45Z"/><path class="cls-3" d="M237.14,105.93a20.14,20.14,0,0,0-10-38.72l5.38,39.92A19.87,19.87,0,0,0,237.14,105.93Z"/><path class="cls-3" d="M226.35,61.43l.78,5.78a20.14,20.14,0,0,1,10,38.72,19.87,19.87,0,0,1-4.63,1.2l.78,5.78a25.73,25.73,0,0,0,6-1.54,26,26,0,0,0-12.91-49.94Z"/><line class="cls-3" x1="234.48" y1="121.71" x2="225.8" y2="57.37"/><line class="cls-3" x1="237.61" y1="119.03" x2="236.71" y2="112.36"/><path class="cls-3" d="M227.47,69.7a17.11,17.11,0,0,0-4.06,1,17.63,17.63,0,0,0,8.77,33.9"/><path class="cls-3" d="M227.46,69.7a8.06,8.06,0,0,0-2.68.86c-5.94,3.12-8.51,13.08-5.73,22.26,2.38,7.82,7.87,12.54,13.13,11.83"/><path class="cls-3" d="M227.46,69.7a2.3,2.3,0,0,0-1.3.68c-2.82,2.69-3.47,12.4-1.45,21.68,1.73,7.91,4.84,13,7.46,12.59"/><path class="cls-3" d="M227.46,69.7l.07.49c.31,2.28,1.58,11.72,2.84,21.1,1.08,8,1.8,13.36,1.8,13.36"/><path class="cls-3" d="M227.46,69.7a2.29,2.29,0,0,1,1.44.31c3.44,1.85,6.63,11,7.13,20.52.44,8.09-1.23,13.77-3.86,14.12"/><path class="cls-3" d="M227.46,69.7a8.18,8.18,0,0,1,2.82.12c6.56,1.43,11.67,10.36,11.41,20-.21,8.17-4.26,14.17-9.52,14.88"/><path class="cls-3" d="M227.46,69.7a17.63,17.63,0,0,1,4.71,35"/><line class="cls-3" x1="247.34" y1="85.22" x2="212.4" y2="89.87"/><path class="cls-3" d="M234.92,124.81,254,117.37s-6.44-2.46-12.49-.1l-7.21,2.81Z"/><path class="cls-5" d="M81.68,118.79c1.53,1.13,2,3.3,3.41,4.55l-.22-.1"/><path class="cls-5" d="M81.74,118.56l19.4-10.39"/><path class="cls-5" d="M85.05,123.41q10.65-3.82,21.45-7.21h0"/><path class="cls-5" d="M101.63,107.76a22,22,0,0,0,2.51,4.55l2.77,4.2"/><path class="cls-5" d="M102.44,108.42c.06-.06-.09-.15-.14-.07s0,.17.06.24a2,2,0,0,0,1.33.5,10.19,10.19,0,0,0,4.14-.45,19.43,19.43,0,0,0,2.07-.83l2.58-1.16"/><path class="cls-5" d="M107,116.11a6.14,6.14,0,0,1,2.19-5,13.73,13.73,0,0,1,5-2.59,15,15,0,0,0-2-1.77"/><path class="cls-5" d="M109.55,108a16.65,16.65,0,0,1,2,1.23"/><path class="cls-5" d="M108.24,102.36q5.33-2.23,10.82-4.09"/><path class="cls-5" d="M108.93,95.49a36.89,36.89,0,0,1-.49,7"/><path class="cls-5" d="M108.55,95.46l.4-.18,4.11-1.86"/><path class="cls-5" d="M113.09,93.17a3.79,3.79,0,0,1,.81.45l6,4.1c.09.06.14.24,0,.23"/><path class="cls-5" d="M145.45,177.3c-1.55-1.12-2-3.29-3.44-4.53l.22.1"/><path class="cls-5" d="M145.38,177.53,126,188"/><path class="cls-5" d="M142,172.7q-10.62,3.88-21.4,7.32h0"/><path class="cls-5" d="M125.55,188.44a21.67,21.67,0,0,0-2.53-4.53l-2.8-4.2"/><path class="cls-5" d="M124.74,187.78c-.06.06.09.15.14.07s0-.17-.07-.24a2,2,0,0,0-1.33-.49,10.14,10.14,0,0,0-4.13.47,21.86,21.86,0,0,0-2.07.84l-2.57,1.17"/><path class="cls-5" d="M120.13,180.12a6.12,6.12,0,0,1-2.16,5,13.42,13.42,0,0,1-5,2.61,16.41,16.41,0,0,0,2,1.76"/><path class="cls-5" d="M117.63,188.28a18.2,18.2,0,0,1-2-1.23"/><path class="cls-5" d="M119,193.87c-3.54,1.52-7.15,2.9-10.79,4.15"/><path class="cls-5" d="M118.32,200.75a37,37,0,0,1,.45-7.05"/><path class="cls-5" d="M118.69,200.77l-.39.18-4.1,1.89"/><path class="cls-5" d="M114.17,203.09a3.4,3.4,0,0,1-.81-.45l-6-4.06c-.09-.06-.14-.24,0-.23"/><path class="cls-5" d="M189.6,14.63c2.26-1.18,5-1.88,7.36-1,.67.24,1.37.74,1.35,1.44s-.66,1.11-1.26,1.4a11.52,11.52,0,0,1-4.83,1.13,5,5,0,0,1-1.8-.25,2.28,2.28,0,0,1-1.32-1.19c-.22-.52,0-1.31.54-1.35"/><path class="cls-5" d="M192.88,17.57c.47.68,1,1.34,1.48,2a7.18,7.18,0,0,0,.17-2.4"/><path class="cls-5" d="M115.9,165c2.26-1.17,5-1.87,7.36-1,.66.24,1.37.73,1.35,1.44s-.66,1.11-1.26,1.4a11.76,11.76,0,0,1-4.84,1.13,4.92,4.92,0,0,1-1.79-.26,2.28,2.28,0,0,1-1.33-1.18c-.22-.53,0-1.31.54-1.36"/><path class="cls-5" d="M119.17,167.93c.47.68,1,1.35,1.48,2a6.71,6.71,0,0,0,.17-2.4"/><path class="cls-6" d="M155.28,86.85a.53.53,0,0,0-.61-.53.51.51,0,0,0-.36-.14l-9.22,0a.52.52,0,0,0-.4.17.51.51,0,0,0-.45.52q.06,4.45,0,8.89c0,1.2,0,2.4-.05,3.59-4.71-3.41-8.24,4.38-2.45,5.37,2.28.39,3.27-1.28,3.5-3.33a73.08,73.08,0,0,0,.2-10.27c2.91-.06,5.82,0,8.73.17,0,1.49,0,3,0,4.47,0,1.2,0,2.4-.05,3.59-4.7-3.41-8.23,4.38-2.44,5.37,2.28.39,3.27-1.28,3.5-3.33C155.73,96.65,155.34,91.6,155.28,86.85ZM142,102.12l.17-.25a.73.73,0,0,1,0,.22Zm-.62,1.14a1.62,1.62,0,0,0,.38.09C141.47,103.5,141.35,103.47,141.39,103.26ZM145.44,90c0-.9-.05-1.8-.07-2.7l8.79,0c0,1,0,1.9,0,2.85C151.27,90,148.36,89.92,145.44,90Zm6.49,12.14.16-.25a.4.4,0,0,1,0,.22Zm-.63,1.14a1.89,1.89,0,0,0,.38.09C151.39,103.5,151.26,103.47,151.3,103.26Z"/><polygon class="cls-7" points="249.31 197.47 232.7 206.56 218.92 193.58 227.01 176.46 245.79 178.86 249.31 197.47"/><circle class="cls-3" cx="234.85" cy="190.69" r="16.77" transform="translate(-33.36 50.77) rotate(-11.53)"/><line class="cls-3" x1="234.52" y1="188.92" x2="235.18" y2="192.45"/><line class="cls-3" x1="236.62" y1="190.35" x2="233.09" y2="191.02"/><line class="cls-3" x1="256.29" y1="175.65" x2="257.24" y2="180.64"/><line class="cls-3" x1="258.02" y1="177.15" x2="255.24" y2="177.68"/><path class="cls-3" d="M240.64,192.65a1.78,1.78,0,1,1-2.08-1.41A1.78,1.78,0,0,1,240.64,192.65Z"/><line class="cls-3" x1="227.52" y1="168.69" x2="257.69" y2="183.05"/><polygon class="cls-7" points="51.68 181.18 33.67 187.01 22.56 171.68 33.71 156.37 51.71 162.25 51.68 181.18"/><circle class="cls-3" cx="38.75" cy="171.82" r="16.77" transform="translate(-110.14 77.72) rotate(-45)"/><line class="cls-3" x1="38.75" y1="170.02" x2="38.74" y2="173.61"/><line class="cls-3" x1="40.54" y1="171.82" x2="36.95" y2="171.82"/><line class="cls-3" x1="62.62" y1="161.06" x2="62.62" y2="166.14"/><line class="cls-3" x1="64.03" y1="162.86" x2="61.21" y2="162.85"/><path class="cls-3" d="M44.06,174.83a1.78,1.78,0,1,1-1.77-1.78A1.78,1.78,0,0,1,44.06,174.83Z"/><line class="cls-3" x1="35.66" y1="148.84" x2="62.61" y2="168.59"/><line class="cls-3" x1="112.15" y1="147.58" x2="111.79" y2="149.63"/><line class="cls-3" x1="109.34" y1="147.08" x2="108.98" y2="149.13"/><line class="cls-3" x1="106.53" y1="146.58" x2="106.17" y2="148.63"/><line class="cls-3" x1="103.73" y1="146.08" x2="103.36" y2="148.12"/><line class="cls-3" x1="100.92" y1="145.58" x2="100.55" y2="147.62"/><line class="cls-3" x1="98.11" y1="145.08" x2="97.74" y2="147.12"/><line class="cls-3" x1="95.3" y1="144.58" x2="94.93" y2="146.62"/><line class="cls-3" x1="92.49" y1="144.08" x2="92.12" y2="146.12"/><path class="cls-3" d="M104.85,131.67A16.48,16.48,0,0,0,85.75,145l32.41,5.78A16.47,16.47,0,0,0,104.85,131.67Z"/><path class="cls-8" d="M93.22,140.93a11.12,11.12,0,0,1,8.72-4.21,11.23,11.23,0,0,1,9.16,4.78,10.68,10.68,0,0,1,1.45,2.88Z"/><line class="cls-3" x1="249.98" y1="30.51" x2="251.95" y2="29.88"/><line class="cls-3" x1="250.85" y1="33.23" x2="252.83" y2="32.6"/><line class="cls-3" x1="251.72" y1="35.95" x2="253.7" y2="35.31"/><line class="cls-3" x1="252.59" y1="38.67" x2="254.57" y2="38.03"/><line class="cls-3" x1="253.47" y1="41.38" x2="255.44" y2="40.75"/><line class="cls-3" x1="254.34" y1="44.1" x2="256.32" y2="43.47"/><line class="cls-3" x1="255.21" y1="46.82" x2="257.19" y2="46.18"/><line class="cls-3" x1="256.08" y1="49.53" x2="258.06" y2="48.9"/><path class="cls-3" d="M239.34,44.42A16.45,16.45,0,0,0,260,55.06L250,23.72A16.46,16.46,0,0,0,239.34,44.42Z"/><path class="cls-8" d="M253,50.36a11.16,11.16,0,0,1-7.87-16.07A11.4,11.4,0,0,1,247,31.67Z"/><path class="cls-3" d="M159.69,65.24c0-3-1-4.6-4.76-4.6s-5.72,3-5.72,7,3.23,9.29,10.48,9.29"/><path class="cls-3" d="M159.69,65.24c0-3,1-4.6,4.75-4.6s5.73,3,5.73,7-3.23,9.29-10.48,9.29"/><path class="cls-3" d="M163.25,64.12c0,.77-1.59,1.4-3.56,1.4s-3.57-.63-3.57-1.4"/><line class="cls-3" x1="159.69" y1="65.24" x2="159.69" y2="55.38"/><path class="cls-3" d="M159.61,61.77a5.19,5.19,0,0,1-3.28-1.67c-1.09-1.46-1.4-3.07-.68-3.61s2.18.21,3.28,1.67A5.18,5.18,0,0,1,159.61,61.77Z"/><path class="cls-3" d="M171.43,183.09c0-3-1-4.6-4.75-4.6s-5.73,3-5.73,7,3.24,9.29,10.48,9.29"/><path class="cls-3" d="M171.43,183.09c0-3,1-4.6,4.76-4.6s5.72,3,5.72,7-3.23,9.29-10.48,9.29"/><path class="cls-3" d="M175,182c0,.77-1.6,1.4-3.57,1.4s-3.56-.63-3.56-1.4"/><line class="cls-3" x1="171.43" y1="183.09" x2="171.43" y2="173.23"/><path class="cls-3" d="M171.36,179.62a5.17,5.17,0,0,1-3.28-1.67c-1.09-1.46-1.4-3.08-.68-3.61s2.18.21,3.28,1.67A5.17,5.17,0,0,1,171.36,179.62Z"/><path class="cls-3" d="M173.62,153.73q8-12.25,16.59-24.17"/><path class="cls-3" d="M196.37,160.93c.26-.42-.39-3.54-.51-4-2.41-9.24-3.24-18.11-5.65-27.35"/><path class="cls-3" d="M196.37,160.93a6.78,6.78,0,0,1-3.74,4.13,12.15,12.15,0,0,1-5.6.95,20,20,0,0,1-8.53-2.32c-3.07-1.64-5.91-4.62-5.61-8.09"/><path class="cls-9" d="M196.37,160.93c-1-7.38-10.74-10.83-17.81-9.72a7.18,7.18,0,0,0-2.89,1c-.85.55-2.72,2.4-2.78,3.42"/><path class="cls-9" d="M186.08,158.52a5.78,5.78,0,0,1-2.55.59"/><path class="cls-9" d="M183.75,157.7l2.33,2.17"/><path class="cls-3" d="M193.66,125.22a2.24,2.24,0,1,1-2.24-2.24A2.24,2.24,0,0,1,193.66,125.22Z"/><path class="cls-3" d="M134.72,121.33a3,3,0,1,1-4.18-.7A3,3,0,0,1,134.72,121.33Z"/><path class="cls-3" d="M136.34,120.18a5,5,0,1,1-7-1.16A5,5,0,0,1,136.34,120.18Z"/><rect class="cls-3" x="126.29" y="112.67" width="2.14" height="7" transform="matrix(0.81, -0.58, 0.58, 0.81, -43.77, 95.43)"/><rect class="cls-3" x="139.26" y="130.88" width="2.14" height="7" transform="matrix(0.81, -0.58, 0.58, 0.81, -51.93, 106.33)"/><line class="cls-3" x1="129.84" y1="124.81" x2="134.72" y2="121.33"/><path class="cls-3" d="M126,135.69a14.1,14.1,0,0,0,20.31-14.47"/><polyline class="cls-3" points="131.08 128 138.06 155.4 140.74 158.1 141.93 157.25 132.86 128.08"/><line class="cls-3" x1="141.26" y1="157.72" x2="144.59" y2="161.3"/><polyline class="cls-3" points="137.33 123.55 160.94 139.1 162.62 142.51 161.43 143.36 136.82 125.25"/><line class="cls-3" x1="162.1" y1="142.88" x2="164.38" y2="147.2"/><path class="cls-3" d="M199,95a9.58,9.58,0,1,1-12.15-6A9.58,9.58,0,0,1,199,95Z"/><circle class="cls-3" cx="189.97" cy="98.09" r="11.61" transform="translate(18.03 225.16) rotate(-63.78)"/><circle class="cls-3" cx="184.88" cy="110.91" r="2.09"/><path class="cls-3" d="M203.79,104.48a2.09,2.09,0,1,1-2.65-1.3A2.09,2.09,0,0,1,203.79,104.48Z"/><line class="cls-3" x1="189.97" y1="98.09" x2="184.53" y2="99.94"/><line class="cls-3" x1="189.97" y1="98.09" x2="188.18" y2="92.83"/><line class="cls-3" x1="187.66" y1="91.31" x2="187.39" y2="90.5"/><line class="cls-3" x1="183.19" y1="100.39" x2="182.38" y2="100.66"/><line class="cls-3" x1="192.27" y1="104.86" x2="192.54" y2="105.67"/><line class="cls-3" x1="196.74" y1="95.78" x2="197.55" y2="95.51"/><path class="cls-3" d="M174,90.06a4.78,4.78,0,0,0,2.17,6.4l4.22-8.57A4.77,4.77,0,0,0,174,90.06Z"/><line class="cls-3" x1="173.97" y1="90.06" x2="172.17" y2="89.23"/><path class="cls-3" d="M172.11,95.64a1.77,1.77,0,0,0,1.2,1.78"/><path class="cls-3" d="M170.71,96.63a1.78,1.78,0,0,0,1.19,1.78"/><path class="cls-3" d="M180.3,85.11a1.79,1.79,0,0,0-2.1-.48"/><path class="cls-3" d="M180.64,83.43a1.75,1.75,0,0,0-2.09-.48"/><path class="cls-3" d="M197.8,82A4.76,4.76,0,0,1,200,88.35l-8.56-4.22A4.77,4.77,0,0,1,197.8,82Z"/><line class="cls-3" x1="197.8" y1="81.96" x2="198.72" y2="80.21"/><path class="cls-3" d="M202.67,85.25a1.77,1.77,0,0,1,.14,2.14"/><path class="cls-3" d="M204.39,85.18a1.77,1.77,0,0,1,.14,2.14"/><path class="cls-3" d="M189.77,81.89s-.09-1.11,1.36-1.66"/><path class="cls-3" d="M188.47,80.77a1.76,1.76,0,0,1,1.36-1.66"/><line class="cls-3" x1="130.48" y1="33.76" x2="128.49" y2="33.17"/><line class="cls-3" x1="131.27" y1="31.11" x2="129.28" y2="30.52"/><line class="cls-3" x1="132.06" y1="28.45" x2="130.07" y2="27.86"/><line class="cls-3" x1="132.85" y1="25.8" x2="130.85" y2="25.21"/><path class="cls-3" d="M137.45,24c-.23.79-1.73,1-3.34.55s-2.74-1.5-2.5-2.29,1.73-1,3.34-.55S137.68,23.19,137.45,24Z"/><path class="cls-3" d="M125.42,39.33l-10.19,9a.88.88,0,0,0-.29.9.87.87,0,0,0,.64.69l20.19,6a.89.89,0,0,0,.91-.22.9.9,0,0,0,.25-.92L133.3,41.67"/><path class="cls-3" d="M133.3,41.67c-.22.74-2.16.82-4.34.17s-3.76-1.77-3.54-2.51,2.16-.82,4.34-.17S133.52,40.93,133.3,41.67Z"/><path class="cls-3" d="M131.61,22.23l-3.55,11.94L113.83,46.7A3.06,3.06,0,0,0,115,51.92l20.18,6A3.05,3.05,0,0,0,139,54.18L133.9,35.91,137.45,24"/><path class="cls-3" d="M69.35,127.33l-18.82,9.45a1.4,1.4,0,0,0-1.68-.34l-1.24.63a1.38,1.38,0,0,0-.62,1.87l1.86,3.7a1.39,1.39,0,0,0,1.87.62l1.24-.62a1.38,1.38,0,0,0,.73-1.55l18.83-9.45s-2,0-2.71-1.34S69.35,127.33,69.35,127.33Z"/><path class="cls-3" d="M47,138.94,36.17,117.38a1.38,1.38,0,0,1,.62-1.86l1.24-.63a1.4,1.4,0,0,1,1.68.34l18.82-9.45,10.82,21.55"/><line class="cls-3" x1="39.71" y1="115.23" x2="48.66" y2="133.05"/><rect class="cls-3" x="44.87" y="113.14" width="12.73" height="5.56" transform="translate(-46.57 35.32) rotate(-26.67)"/><line class="cls-3" x1="50.4" y1="122.46" x2="56.98" y2="119.16"/><line class="cls-3" x1="54.08" y1="123.73" x2="55.8" y2="122.86"/><path class="cls-3" d="M190.08,69.16l-8-19.49a1.41,1.41,0,0,0,.47-1.65L182,46.73a1.4,1.4,0,0,0-1.82-.76l-3.84,1.58a1.39,1.39,0,0,0-.76,1.81l.53,1.29a1.38,1.38,0,0,0,1.49.84l8,19.49s.16-2,1.53-2.6S190.08,69.16,190.08,69.16Z"/><path class="cls-3" d="M180.21,46l22.31-9.15a1.4,1.4,0,0,1,1.82.76l.53,1.28a1.39,1.39,0,0,1-.47,1.65l8,19.49-22.32,9.16"/><line class="cls-3" x1="204.4" y1="40.51" x2="185.95" y2="48.08"/><rect class="cls-3" x="196.47" y="49.18" width="12.73" height="5.56" transform="translate(173.91 -155.42) rotate(67.69)"/><line class="cls-3" x1="196.38" y1="50.63" x2="199.18" y2="57.44"/><line class="cls-3" x1="194.84" y1="54.19" x2="195.57" y2="55.98"/><line class="cls-3" x1="230.99" y1="152.49" x2="232.14" y2="150.75"/><line class="cls-3" x1="233.3" y1="154.01" x2="234.45" y2="152.28"/><line class="cls-3" x1="235.61" y1="155.54" x2="236.76" y2="153.81"/><line class="cls-3" x1="237.92" y1="157.07" x2="239.07" y2="155.34"/><path class="cls-3" d="M238.33,162c-.68-.45-.48-2,.45-3.36s2.23-2.18,2.91-1.72.49,1.95-.44,3.36S239,162.46,238.33,162Z"/><path class="cls-3" d="M227.15,146l-5.61-12.35a.94.94,0,0,0-1.63-.13L208.29,151.1a.93.93,0,0,0,.75,1.45l13.57.33"/><path class="cls-3" d="M222.61,152.88c-.65-.42-.15-2.31,1.1-4.2s2.79-3.08,3.44-2.66.15,2.31-1.1,4.21S223.25,153.31,222.61,152.88Z"/><path class="cls-3" d="M241.69,156.93l-10.38-6.88-7.84-17.26a3.06,3.06,0,0,0-5.33-.42l-11.62,17.56a3.06,3.06,0,0,0,2.47,4.74l18.95.47L238.33,162"/></svg>