<svg id="Layer_1" data-name="Layer 1" xmlns="http://www.w3.org/2000/svg" viewBox="0 0 273 216"><defs><style>.cls-1{fill:#29235c;}.cls-2,.cls-5{fill:#fff;}.cls-3{fill:#35a7df;}.cls-10,.cls-4,.cls-6,.cls-7,.cls-8,.cls-9{fill:none;}.cls-10,.cls-4,.cls-5,.cls-6,.cls-7,.cls-8,.cls-9{stroke:#fff;stroke-linecap:round;}.cls-10,.cls-4,.cls-5,.cls-7,.cls-8,.cls-9{stroke-linejoin:round;}.cls-4{stroke-width:1.25px;}.cls-10,.cls-5,.cls-7,.cls-8,.cls-9{stroke-width:1.06px;}.cls-6{stroke-miterlimit:1;stroke-width:0.9px;}.cls-8{stroke-dasharray:3.49 3.49;}.cls-9{stroke-dasharray:3.19 3.19;}.cls-10{stroke-dasharray:3.79 3.79;}</style></defs><title>quiz-bg-blue</title><rect class="cls-1" width="273" height="216"/><path class="cls-2" d="M21.41,73.2c-1.37-1.18-3.61-1.51-5-.1a3,3,0,0,0,.29,4.48c1.53,1.09,4,1.5,5-.44a6,6,0,0,0,.55-2.51c.06-1.42.05-2.84.07-4.26,0-3.26,0-6.52,0-9.78H21.26c.21,2.82,2.67,4.24,5,5.31.65.3,1.22-.66.56-1-1.87-.87-4.25-2-4.43-4.34-.06-.71-1.13-.73-1.12,0q0,3.7,0,7.42a71.48,71.48,0,0,1-.13,7.17c-.09.85-.33,2-1.29,2.18A3.13,3.13,0,0,1,16.81,76a2,2,0,0,1,.83-2.38,2.62,2.62,0,0,1,3,.42c.55.46,1.34-.32.79-.8Z"/><path class="cls-2" d="M18.56,74.08a2.42,2.42,0,0,0,1.78,1.6.64.64,0,0,0,.36,0,.51.51,0,0,0,.27-.23,1.18,1.18,0,0,0,.11-.69,1.25,1.25,0,0,0-.19-.55,1.31,1.31,0,0,0-1.07-.61.55.55,0,0,0-.56.56,1.52,1.52,0,0,0,.43,1,1.63,1.63,0,0,0,1,.45.73.73,0,0,0,.74-.29,1.37,1.37,0,0,0,.15-.56,1.51,1.51,0,0,0-.23-.85,1.41,1.41,0,0,0-.87-.62.59.59,0,0,0-.55.15.56.56,0,0,0-.14.54,1.08,1.08,0,0,0,1.33.74.63.63,0,0,0,.34-.26.54.54,0,0,0,0-.43.56.56,0,0,0-.69-.39l-.09,0,.15,0a.33.33,0,0,1-.14,0l.15,0-.11,0,.13,0-.08,0c-.08,0,.1.11,0,0l0,0,.05.06a.22.22,0,0,0-.05-.08l.06.13a.64.64,0,0,1,0-.07l-.69.69.15,0-.13,0,.14.07c.08,0-.12-.1,0,0l.06,0,.05,0c-.13-.12-.06-.07,0,0l.07.14-.06-.14a.73.73,0,0,1,.07.24l0-.15a.89.89,0,0,1,0,.23l0-.15a1.05,1.05,0,0,1-.05.19l.05-.13a.08.08,0,0,1,0,0l.34-.26h0l.15,0a.81.81,0,0,1-.22,0l.15,0-.24-.07.13.06-.15-.09-.05,0c.08.06.1.07.07,0l-.07,0,0-.06c-.09-.1.06.09,0,0a.71.71,0,0,1-.08-.15l.05.14a.9.9,0,0,1-.06-.22l0,.15v-.05l-.56.56h.09l-.15,0,.15,0-.13,0,.12.06c.08,0-.11-.09,0,0l.06,0s.07.09,0,0,0,0,0,0a.54.54,0,0,1,.07.13l-.06-.13A.59.59,0,0,1,20,75l0-.15A.43.43,0,0,1,20,75l0-.15A.42.42,0,0,1,20,75l.06-.14v0l.63-.25a2.35,2.35,0,0,1-.35-.11l.14.06-.31-.16-.06,0c-.09-.06.11.09,0,0L20,74.25l-.12-.13s-.07-.11,0,0a.43.43,0,0,0,0-.07,1.46,1.46,0,0,1-.17-.3l.06.14-.06-.15a.56.56,0,0,0-.69-.39.57.57,0,0,0-.39.69Z"/><path class="cls-2" d="M18,73.75a2.37,2.37,0,0,0-.69,2.36.88.88,0,0,0,.43.64,2.76,2.76,0,0,0,.55.19,2.66,2.66,0,0,0,1.19,0,2.76,2.76,0,0,0,1.74-1.26,1.7,1.7,0,0,0,.24-1.33,1.39,1.39,0,0,0-1.22-.78,2.47,2.47,0,0,0-2.54.93,1.9,1.9,0,0,0-.31,1.2A1.64,1.64,0,0,0,18,76.81a1.44,1.44,0,0,0,2.14-.43,2,2,0,0,0-.48-2.22A2,2,0,0,0,17,74a1.48,1.48,0,0,0,.21,2.31.56.56,0,0,0,.56-1l-.06,0s.1.1,0,0,0,0,0,0,0,.08,0,0,0,0,0,0,0,0,0,0a.74.74,0,0,1,0-.14s0,.13,0,0v-.08s0,0,0-.06,0,.1,0,0l0-.14a.19.19,0,0,0,0-.07s0,.09,0,0,.11-.16,0-.05l.1-.1s0,0,0,0l.07,0,.09,0c-.05,0,0,0,0,0s.21,0,.09,0h.24l.2.05.1,0s-.09,0,0,0l.15.08.15.1c-.08-.06,0,0,.06.07s.14.15.06,0l.09.13.07.13s0,.1,0,0l0,.08c0,.06,0,.12.05.17a.17.17,0,0,0,0,.07c0,.07,0-.1,0,0s0,.1,0,.15a.19.19,0,0,1,0,.08s0-.1,0,0a.24.24,0,0,0,0,.08s-.05.07,0,0-.08.15,0,.08,0,0,0,0l-.06.06s.1-.06,0,0L19,76c.13-.1,0,0-.06,0h-.09c.1,0,.07,0,0,0l-.16,0c.12,0,0,0-.06,0l-.05,0c-.07,0,.05.06,0,0a1.14,1.14,0,0,0-.11-.11s0-.07,0,0a.43.43,0,0,0,0-.07s0,0,0-.08,0,.11,0,0a.22.22,0,0,0,0-.08c0-.07,0,.09,0,0s0-.11,0-.17,0-.09,0,0a.29.29,0,0,0,0-.09s.08-.2,0-.1a1.09,1.09,0,0,1,.08-.15s.11-.15,0-.07l.14-.14.07-.07h0l.16-.09.07,0c-.08,0,0,0,0,0l.22-.06.11,0s-.1,0,0,0h.51c-.06,0,0,0,0,0a1.89,1.89,0,0,1,.41.1l.07,0c-.09,0,0,0,0,0s-.13-.15-.09-.15,0,.09,0,.1,0-.11,0,0,0,.1,0,.16l0,.06c0-.11,0,0,0,0s-.05.11-.08.16l-.11.16s0,0,0,0l-.07.08-.14.14s-.15.12-.05,0a2,2,0,0,1-.31.19l-.06,0s-.13.06-.05,0,0,0,0,0l-.1,0-.34.08c.15,0,0,0-.08,0h-.26l-.17,0-.17,0-.08,0h0l.2.2c.05.11,0,0,0,0s0-.06,0-.09a.7.7,0,0,1,0-.14c0,.08,0,0,0,0v-.24c0-.06,0-.11,0,0l0-.15a2,2,0,0,1,.07-.23c0-.1,0,0,0,0a1.17,1.17,0,0,1,0-.11l.08-.12c.06-.09,0,0,0,0l.19-.19a.58.58,0,0,0,0-.8.6.6,0,0,0-.8,0Z"/><path class="cls-3" d="M194.94,133.43c0-.11.12-.58.12-.69l.12-.44c0-.12.23-1.05.23-1.17s.23-.93.23-1,.23-1.05.23-1.16.12-.58.12-.7.23-.91.23-1,.12-.7.12-.82.35-1.27.35-1.39.23-.93.23-1l.12-.46.11-.58a8.18,8.18,0,0,1,.47-1.14l.11-.23.35-.35.12-.23.35-.12.46-.23s1.05-.12,1.4-.12h.11a6.35,6.35,0,0,1,.81.12,1.58,1.58,0,0,1,.47.23l.12.12c0,.11.23.46.23.58l.11.46.12.23.12.35.35.44a12.47,12.47,0,0,1,.58,1.17c0,.11.23.81.23.93s.35.69.35.81l.11.35.12.58.12.23c.11.35.46,1.84.58,2.18,0,.12.23,1,.23,1.17a2.64,2.64,0,0,0,.12.46l.11.23V132a3.37,3.37,0,0,1-.35.67l-.11.12-.24.35-.23.23-.11.23-.24.23a1.59,1.59,0,0,1-.69.24H201.8s-.23-.24-.23-.35-.12-.7-.12-.82c-.12-.44-.35-1.83-.35-1.95s-.23-.58-.23-.7h-.23l-.23.12c-.12,0-.7.12-.82.12a.53.53,0,0,0-.35.35,3.63,3.63,0,0,0-.23.81c0,.12-.23.81-.23,1l-.12.58-.11.23-.35.24-.24.23a2.05,2.05,0,0,0-.34.7h-2.21c0,.11-.23.23-.35.23s-.23-.12-.23-.23v-.7Zm3-10.52a8,8,0,0,1-.34,1.28c0,.11-.35,1.62-.35,1.74l-.12.46c0,.24-.35,1.84-.35,2.07a2.75,2.75,0,0,0-.11.47l-.12.34c0,.12-.23,1.17-.23,1.28s-.35,1.63-.35,1.75-.12.55-.12.67-.23.58-.23.7V134h.7a2.64,2.64,0,0,0,.46-.12l.12-.23c0-.12.12-.7.12-.82a3.87,3.87,0,0,1,.11-.67c0-.12.23-.46.23-.58a7.92,7.92,0,0,0,.35-1.63l.12-.11.35-.12c.11,0,.93-.12,1-.12h.82l.35-.11c.11,0,.46-.12.58-.12h.34l.12.12.12.23c0,.12.23.81.23.93s.35,1.63.35,1.74a5.15,5.15,0,0,1,.23.91h1.16l.12-.12v-.11c0-.12-.23-.58-.23-.68s-.24-.81-.24-.93l-.11-.35a7.8,7.8,0,0,0-.23-.81l-.12-.58-.12-.23c0-.12-.23-.47-.23-.58a1.23,1.23,0,0,1-.12-.35c-.11-.47-.58-1.72-.58-1.84l-.11-.46c-.12-.47-.35-.82-.47-1.28l-.11-.47c0-.11-.35-.93-.35-1s-.23-1-.23-1.14l-.12-.23h-.7c-.23,0-1,.11-1.28.11A2.21,2.21,0,0,0,198,122.91Zm-.11,4.85a2.27,2.27,0,0,0,.11-.44c0-.11.35-.69.35-.81s.24-1.39.24-1.86v-.58a1.58,1.58,0,0,1,.23-.47l.11-.11h.24a.94.94,0,0,1,.46.46,3.16,3.16,0,0,1,.23.58l.12.47c0,.12.23.58.23.7s.35,1.39.35,1.51a2.64,2.64,0,0,0,.12.46c0,.09.23.56.23.68v.34a.42.42,0,0,1-.23.12,9.69,9.69,0,0,1-1.75.35c-.11,0-.58.23-.69.23H198l-.11-.12Zm1.51-1.37a2.56,2.56,0,0,1-.12.47v.7a.7.7,0,0,0,.47-.12v-.35c0-.12-.12-.46-.12-.58l-.11-.35Z"/><path class="cls-3" d="M65.55,196.34c0-.11.11-.58.11-.69l.12-.44c0-.12.23-1.05.23-1.17s.23-.93.23-1,.24-1.05.24-1.16.11-.58.11-.7.24-.91.24-1,.11-.7.11-.82.35-1.27.35-1.39.23-.93.23-1l.12-.46.11-.58a8.18,8.18,0,0,1,.47-1.14l.12-.23.34-.35.12-.23.35-.12.46-.23s1-.12,1.4-.12h.11a6.29,6.29,0,0,1,.82.12,1.45,1.45,0,0,1,.46.23l.12.12c0,.11.23.46.23.58l.12.46.11.23.12.35.35.44A12.47,12.47,0,0,1,74,187.1c0,.11.23.81.23.93s.35.69.35.81l.12.35.11.58L75,190c.11.35.46,1.84.58,2.18,0,.12.23,1,.23,1.17a2.64,2.64,0,0,0,.12.46L76,194v.82a4.2,4.2,0,0,1-.34.67l-.12.12-.23.35-.24.23-.11.23-.23.23a1.63,1.63,0,0,1-.7.24H72.4s-.23-.24-.23-.35-.12-.7-.12-.82c-.11-.44-.34-1.83-.34-1.95s-.24-.58-.24-.7h-.23l-.23.12c-.12,0-.7.12-.82.12a.52.52,0,0,0-.34.35,3.51,3.51,0,0,0-.24.81c0,.11-.23.81-.23,1l-.11.58-.12.23-.35.24-.23.23a1.92,1.92,0,0,0-.35.7H66c0,.11-.23.23-.35.23s-.23-.12-.23-.23v-.7Zm3-10.52a7.16,7.16,0,0,1-.35,1.28c0,.11-.35,1.62-.35,1.74l-.12.46c0,.24-.34,1.84-.34,2.07a2.56,2.56,0,0,0-.12.47l-.12.34c0,.12-.23,1.17-.23,1.28s-.35,1.63-.35,1.75-.11.55-.11.67-.24.58-.24.7v.35h.7a2.56,2.56,0,0,0,.47-.12l.11-.23c0-.12.12-.7.12-.82a3.87,3.87,0,0,1,.11-.67c0-.12.24-.47.24-.58a8.63,8.63,0,0,0,.35-1.63l.11-.11.35-.12c.12,0,.93-.12,1-.12h.81l.35-.11c.11,0,.46-.12.58-.12h.35l.11.12.12.23c0,.12.23.81.23.93s.35,1.63.35,1.74a4.38,4.38,0,0,1,.23.91h1.17l.11-.12V196c0-.12-.23-.59-.23-.68s-.23-.81-.23-.93l-.12-.35a7.8,7.8,0,0,0-.23-.81l-.12-.58-.11-.23c0-.12-.24-.47-.24-.58a1.3,1.3,0,0,1-.11-.35c-.12-.47-.58-1.72-.58-1.84l-.12-.46c-.12-.47-.35-.82-.46-1.28l-.12-.47c0-.11-.35-.93-.35-1s-.23-1-.23-1.14l-.12-.23h-.7c-.23,0-1,.11-1.27.11A2,2,0,0,0,68.57,185.82Zm-.12,4.85a2.12,2.12,0,0,0,.12-.44c0-.11.35-.69.35-.81s.23-1.39.23-1.86V187a1.89,1.89,0,0,1,.23-.47l.12-.11h.23c.12,0,.46.35.46.46a3.08,3.08,0,0,1,.24.58l.11.47c0,.12.24.58.24.7s.34,1.39.34,1.51a2.64,2.64,0,0,0,.12.46c0,.09.23.56.23.68v.34a.38.38,0,0,1-.23.12,9.76,9.76,0,0,1-1.74.35c-.12,0-.58.23-.7.23h-.23l-.12-.12ZM70,189.3a2.75,2.75,0,0,1-.11.47v.69a.73.73,0,0,0,.46-.11V190c0-.12-.12-.46-.12-.58l-.11-.35Z"/><path class="cls-3" d="M16.47,108l-.08-.06-.12-.22,0-.16v-.42l-.06-.33c.06-.09.14-.63.21-.72v-.42l.1-.36.14-.61a2.1,2.1,0,0,1,.26-.8c.07-.1.3-.64.3-.64l.65-1c.26-.39,1.09-1.4,1.16-1.49s1.13-1.06,1.2-1.15.84-.83.91-.93a1.64,1.64,0,0,1,.45-.25,8.48,8.48,0,0,0,.86-.43c.06-.1.55-.19.55-.19l1.29-.25a3.75,3.75,0,0,0,.68,0,3.37,3.37,0,0,1,.61.13A4,4,0,0,1,27,98.5l.48.32c.1.07.32.36.42.42s.35.52.47.75a1.71,1.71,0,0,1,.26.45c.09.07.16.39.16.39,0,.16.18.55.12.65s0,.58,0,.67l-.1.36-.05.27c-.13.2-.46,1.1-.52,1.19l-.39.58-.49.09-.55.19L26,105l-.25,0-1.83-1.24s-.13-.23-.06-.32l.2-.29.16,0,.72-1.06a3.2,3.2,0,0,1,.16-.45,1.05,1.05,0,0,0,.1-.35.4.4,0,0,0,0-.26l-.13-.23-.19-.13a.38.38,0,0,0-.23.13l-.07.09-.45.26a1,1,0,0,0-.29.22c-.07.1-.59.45-.65.54a2.65,2.65,0,0,1-.36.32c-.19.29-1.17,1.31-1.3,1.5l-.67,1c-.13.2-.69,1.22-.82,1.42l.07.32c-.07.09-.2.71-.27.8l0,.26,0,.16.09.07a1.43,1.43,0,0,0,.36.1l.32-.07a1.94,1.94,0,0,0,.68-.38c.13-.19,1-1.28,1.14-1.47a5,5,0,0,1,.42-.41c.07-.1.65-.13.81-.16a4.46,4.46,0,0,0,.69,0l.26,0,.09.06c.2.13,1.09.88,1.28,1l.13.23s.05.34,0,.44l-.1.35,0,.16-.33.06c-.13.2-.81,1-.94,1.19l-.36.32c-.07.09-.36.31-.42.41s-.43.42-.49.51-.45.26-.52.35l-.16,0-.24.15c-.16,0-.71.22-.87.25l-.49.09h-.42l-.58,0-.51-.07-.16,0-.26,0c-.1-.06-.61-.13-.71-.2a2.81,2.81,0,0,0-.45-.16L18,110.4a5.89,5.89,0,0,1-1-1,1.07,1.07,0,0,1-.23-.29,5,5,0,0,0-.18-.55l.19-.29,0-.16-.17-.12c.09,0,.19-.15.11-.2S16.41,107.91,16.47,108Zm.88.6,0,.16.13.22c.1.07.51.49.61.56l.19.13c.1.06.64.29.64.29h.42c.1.06.68,0,.77.1l.33-.06a2.26,2.26,0,0,0,.77-.32c.18-.05.76-.49.92-.52a1.41,1.41,0,0,0,.3-.22,5.78,5.78,0,0,0,.71-.64l.39-.58a2.48,2.48,0,0,0,.17-.45l-.77-.52-.16,0c-.13.19-.88,1.09-1,1.28a3.62,3.62,0,0,1-.36.32,2.65,2.65,0,0,1-.78.31l-.25,0c-.1-.07-.6,0-.69,0l-.39-.26A2.79,2.79,0,0,0,19,108c-.1-.06-.35-.52-.45-.58l-.13-.23-.12-.64,0-.26a1.43,1.43,0,0,1,.1-.36l.17-.45c.06-.09.07-.51.13-.61s.23-.54.3-.64l1.38-2a6.32,6.32,0,0,0,.49-.51c.36-.32,1.56-1.47,1.63-1.56s.52-.35.58-.45l.16,0,.23-.13,1-.2c.1.07.42,0,.52.07l.38.26a5.54,5.54,0,0,1,.67.88l0,.16s0,.34,0,.44l0,.25a2.37,2.37,0,0,1-.2.71c-.13.19-.69,1.22-.82,1.41l0,.16.58.4.16,0,.65-1a4.24,4.24,0,0,1,.3-.64c.1-.35.3-.64.41-1a5.6,5.6,0,0,0-.31-1.62l-.13-.22-1.25-.85a1.55,1.55,0,0,0-.7-.2c-.17,0-.84,0-1,0a9.49,9.49,0,0,0-1.11.4,1.62,1.62,0,0,0-.62.28c-.07.1-.45.26-.52.35s-.58.45-.65.54l-.42.42-.29.22c-.07.1-.49.51-.56.61s-.35.32-.42.41c-.21.31-1,1.21-1.09,1.4s-.36.74-.49.93-.16.45-.23.55a1,1,0,0,0-.1.35c-.07.51-.22,2-.29,2.08a4.5,4.5,0,0,0,.28,1.45Z"/><path class="cls-3" d="M260,157.07l-.44.12c-.11,0-.81.11-.93.11H258l-.12-.11a2.75,2.75,0,0,1-.11-.47v-.23c0-.12-.12-.7-.12-.81s-.11-1.26-.11-1.61V154l.81-.93h2.07v-2c.11-.11.69-.46.81-.58s.3-.25.56-.39l1.6-.14.77.11.16.28.05.42v1.79c.23,0,1,.12,1.25.12h1.28l.23.11V155l-.11.23-.35.35s-.23.23-.23.35-.24.35-.24.46-.81.12-.93.12a2.64,2.64,0,0,0-.46.12v1.27c-.09,0-.33.21-.33.21l-.11.23c-.12.12-.35.59-.47.7l-.11.12-.35.11c-.35,0-1.51.24-1.74.24h-.93a.42.42,0,0,0-.24-.12l-.11-.12v-2.18Zm1.28-.81v2.3h.93c.23,0,.93-.12.93-.12l.12-.12s.11-.67.11-.9.12-1,.12-1.28l.23-.23a1.12,1.12,0,0,1,.35-.12h.35a4.59,4.59,0,0,1,.56-.11,2.64,2.64,0,0,0,.46-.12l.12-.12V154c-.12,0-.91.11-1,.11s-.81.23-.92.23h-.47a.38.38,0,0,1-.12-.23,1.3,1.3,0,0,0-.11-.35v-.81c0-.23-.12-1-.12-1.28h-1.28a1.23,1.23,0,0,0-.35.12v2.44a1.2,1.2,0,0,1-.34.11,1.12,1.12,0,0,0-.35.12c-.23,0-1.61.12-1.84.12l-.11.32v.47c0,.11.11.93.11,1h.82l.46-.11c.09,0,.56-.12.67-.12h.35A1.12,1.12,0,0,1,261.23,156.26Z"/><path class="cls-3" d="M250.43,73.69c.12,0,.7.12.81.12s.23.11.23.23l.12.23v.23a2.21,2.21,0,0,1-.23.59l-.12.23c-.11.11-.35.58-.46.69l-.12.12c0,.12-.23.35-.23.35s-.33.72-.33.84l-.23.46c0,.12-.23.58-.23.7l-.12.23-.11.46c0,.12-.24.59-.24.7a5.56,5.56,0,0,0-.11.58,8.75,8.75,0,0,0-.23,1.75v.37a26,26,0,0,0,.34,2.9c0,.24.24,1.75.24,2a1.19,1.19,0,0,1,.11.35l.23.58c.12.25.35,1,.35,1v.35s-.35.58-.46.81l-.12.12a9.58,9.58,0,0,1-1.16.58c-.12,0-.67.12-.79.12l-.35.11a1.76,1.76,0,0,1-.46-.23l-.47-.93v-.12l-.11-.11-.12-.35-.23-.47c0-.11-.21-.58-.21-.69s-.47-.84-.47-1L245,87.1l-.23-.47a4.9,4.9,0,0,1-.24-1.16V81.38a7.51,7.51,0,0,1,.24-1.28c0-.11.23-.69.23-.81s.46-1,.46-1.16l.12-.47c0-.11.44-.69.44-.81l.12-.23c.11-.14.34-.61.46-.72l.12-.12a3.64,3.64,0,0,1,.35-.58l.11-.23c0-.12.23-.35.23-.35l.12-.12c.12,0,.35-.23.35-.23a3.12,3.12,0,0,1,.91-.46c.11,0,.58-.24.69-.24h.35A4.25,4.25,0,0,1,250.43,73.69Zm-3.67,15.76a1.76,1.76,0,0,0,.23.46,4.45,4.45,0,0,0,.35.47l.11.11h.24a4.76,4.76,0,0,0,.55-.11,1.51,1.51,0,0,0,.35-.24l.12-.11v-.12c0-.11-.35-.81-.35-.93-.12-.46-.67-2.23-.67-2.46s-.24-1.16-.24-1.51-.11-1.16-.11-1.28V81.85c0-.12.11-1,.11-1.28s.24-1.51.24-1.63a2.2,2.2,0,0,1,.23-.69,8.54,8.54,0,0,1,1-2.12l.23-.35a1.74,1.74,0,0,1,.24-.46V75.2c-.12,0-.35-.11-.47-.11h-.58a1.56,1.56,0,0,0-.35.23l-.21.23-.23.46-.12.12-.34.6-.12.12c0,.12-.47.58-.47.7l-.11.11c0,.12-.23.59-.23.7s-.47,1.16-.47,1.28-.21.58-.21.7-.11.35-.11.46-.12.7-.12.82v3.5c0,.12.12.47.12.59s.23.81.23.92.21.59.21.7.35.58.35.7v.12Z"/><path class="cls-3" d="M80.09,40.86a4.33,4.33,0,0,1-.47,2.7c-.5.83-1,1.66-1.49,2.48a.72.72,0,0,0,.64.28h.85a3.57,3.57,0,0,1,3,1.93,3.76,3.76,0,0,1,.17,2.59,8,8,0,0,1-1.2,2.4l-1.5,2.1a1.25,1.25,0,0,1-.49.39,1.08,1.08,0,0,1-1.23-.14L76.85,52a32.92,32.92,0,0,1-1.33-3.6.88.88,0,0,1-.75-.48.51.51,0,0,1,0-.42,3.13,3.13,0,0,1,.28-.54,47.93,47.93,0,0,0-2.55-6,1.85,1.85,0,0,1-1.72-.3.47.47,0,0,1,0-.29.73.73,0,0,0,0-.32,1.88,1.88,0,0,1,.92-.84A3.25,3.25,0,0,1,72.4,39c.45-.12.75-.2.88-.25a7,7,0,0,1,2.32-.27c1.88.11,3.13.48,3.73,1.11A2.76,2.76,0,0,1,80.09,40.86Zm.61,8.43a3.23,3.23,0,0,0-.15-.47,1.93,1.93,0,0,0-.91-.94A5.07,5.07,0,0,0,78,48a1,1,0,0,0-.29.2,3.94,3.94,0,0,1,.23.46,12.29,12.29,0,0,1,.5,1.42c.2.65.37,1.13.5,1.44a5.21,5.21,0,0,0,.72,1.16,3.67,3.67,0,0,1,.52-1,3.21,3.21,0,0,0,.49-.92A2.94,2.94,0,0,0,80.7,49.29Zm-3.08-8.6a1.81,1.81,0,0,0-1.82-.64,3.45,3.45,0,0,1-.65,0,.88.88,0,0,0-.5,0,.64.64,0,0,0-.17.13c.09.25.2.5.32.77s.47,1,.92,1.83.7,1.41.89,1.87c.1,0,.21-.19.34-.42s.21-.37.23-.4a3.15,3.15,0,0,0,.68-1.5A2.22,2.22,0,0,0,77.62,40.69Z"/><path class="cls-3" d="M181.51,35c-.13.28-.49.45-1.09.53a16.52,16.52,0,0,1-1.86.09c-.95,0-1.55,0-1.79,0h-.86a1.7,1.7,0,0,1-1.79-1,40,40,0,0,1,1.9-3.78c.92-1.68,1.55-2.93,1.91-3.75l.67-1.45a4.11,4.11,0,0,0,.37-1.49c0-.64-.16-1-.48-1s-.41.22-.67.64-.49.83-.7,1.22a.36.36,0,0,0-.05.21,1.41,1.41,0,0,0,.13.44,1.63,1.63,0,0,1,.12.51.61.61,0,0,1-.18.43.6.6,0,0,1-.44.2c-.22,0-.64-.29-1.26-.88a1,1,0,0,1-.3-.75,2.85,2.85,0,0,1,.42-1.32,4.7,4.7,0,0,1,3.07-2.42,2.14,2.14,0,0,1,.48-.07,1.34,1.34,0,0,1,1.4,1,4.74,4.74,0,0,1,.21,1.42,7.88,7.88,0,0,1-.56,2.65c-.37.83-.74,1.67-1.09,2.5-.2.47-.6,1.23-1.19,2.28a13.78,13.78,0,0,0-1.11,2.33c.24,0,.94,0,2.09,0a8.34,8.34,0,0,1,2.07.21.84.84,0,0,1,.65.9A.82.82,0,0,1,181.51,35Z"/><ellipse class="cls-4" cx="212.64" cy="91.45" rx="6.61" ry="16.15"/><ellipse class="cls-4" cx="213.56" cy="91.45" rx="16.15" ry="6.61" transform="translate(-2.11 177.8) rotate(-45)"/><ellipse class="cls-4" cx="212.64" cy="91.45" rx="16.15" ry="6.61"/><path class="cls-5" d="M209.82,78.5a1.13,1.13,0,1,1-1.13-1.13A1.13,1.13,0,0,1,209.82,78.5Z"/><path class="cls-5" d="M226.18,79.85a1.13,1.13,0,1,1-1.13-1.12A1.12,1.12,0,0,1,226.18,79.85Z"/><path class="cls-5" d="M212.63,98a1.13,1.13,0,1,1-1.13-1.13A1.13,1.13,0,0,1,212.63,98Z"/><path class="cls-4" d="M215.18,91.45a2.54,2.54,0,1,1-2.54-2.54A2.54,2.54,0,0,1,215.18,91.45Z"/><ellipse class="cls-4" cx="52.59" cy="86.29" rx="16.15" ry="6.61"/><ellipse class="cls-4" cx="52.59" cy="85.37" rx="6.61" ry="16.15" transform="translate(-44.96 62.19) rotate(-45)"/><ellipse class="cls-4" cx="52.59" cy="86.29" rx="6.61" ry="16.15"/><path class="cls-5" d="M39.64,89.11a1.13,1.13,0,1,1-1.13,1.13A1.13,1.13,0,0,1,39.64,89.11Z"/><path class="cls-5" d="M41,72.75a1.13,1.13,0,1,1-1.12,1.13A1.12,1.12,0,0,1,41,72.75Z"/><path class="cls-5" d="M59.09,86.3A1.13,1.13,0,1,1,58,87.43,1.13,1.13,0,0,1,59.09,86.3Z"/><path class="cls-4" d="M52.59,83.75a2.54,2.54,0,1,1-2.54,2.54A2.54,2.54,0,0,1,52.59,83.75Z"/><path class="cls-4" d="M252.58,136.57c-8.12,4.45-20.66.53-26.12-6.75-2.74-3.65-3.24-10.68,1.58-13,2.44-1.2,4,.85,6.36.73s3.48-2.53,4.12-4.49c1.6-4.87,4.72-8,10.23-7.48a16.7,16.7,0,0,1,12.13,7.64C265.57,121.21,260.19,132.4,252.58,136.57Z"/><path class="cls-4" d="M235.7,122.93A2.74,2.74,0,1,1,233,120.2,2.74,2.74,0,0,1,235.7,122.93Z"/><path class="cls-4" d="M243.23,132.62a2.74,2.74,0,1,1-2.74-2.74A2.74,2.74,0,0,1,243.23,132.62Z"/><path class="cls-4" d="M250.5,132.14a2.74,2.74,0,1,1-2.73-2.73A2.74,2.74,0,0,1,250.5,132.14Z"/><path class="cls-4" d="M256.84,128.22a2.74,2.74,0,1,1-2.73-2.74A2.74,2.74,0,0,1,256.84,128.22Z"/><path class="cls-4" d="M259.58,121.71a2.74,2.74,0,1,1-2.74-2.73A2.74,2.74,0,0,1,259.58,121.71Z"/><path class="cls-4" d="M257.61,115.28a2.74,2.74,0,1,1-2.73-2.74A2.73,2.73,0,0,1,257.61,115.28Z"/><path class="cls-4" d="M55.58,170.67c-8.12,4.45-20.67.53-26.12-6.75-2.74-3.66-3.24-10.68,1.58-13,2.44-1.2,4,.85,6.36.73s3.47-2.53,4.12-4.49c1.6-4.88,4.71-8,10.23-7.49a16.74,16.74,0,0,1,12.13,7.65C68.56,155.31,63.19,166.5,55.58,170.67Z"/><path class="cls-4" d="M38.7,157A2.74,2.74,0,1,1,36,154.29,2.74,2.74,0,0,1,38.7,157Z"/><path class="cls-4" d="M46.22,166.72A2.74,2.74,0,1,1,43.49,164,2.73,2.73,0,0,1,46.22,166.72Z"/><path class="cls-4" d="M53.5,166.24a2.74,2.74,0,1,1-2.74-2.74A2.74,2.74,0,0,1,53.5,166.24Z"/><path class="cls-4" d="M59.84,162.32a2.74,2.74,0,1,1-2.74-2.74A2.74,2.74,0,0,1,59.84,162.32Z"/><path class="cls-4" d="M62.58,155.81a2.74,2.74,0,1,1-2.74-2.73A2.74,2.74,0,0,1,62.58,155.81Z"/><path class="cls-4" d="M60.61,149.38a2.74,2.74,0,1,1-2.74-2.74A2.73,2.73,0,0,1,60.61,149.38Z"/><polyline class="cls-4" points="152.42 39.03 150.66 28.76 132.67 55.83 155.03 54.23 153.02 43.37"/><polyline class="cls-4" points="152.42 39.01 161.87 42.3 153.69 46.42"/><polyline class="cls-4" points="161.87 42.3 153.02 43.37 133.09 55.63 152.42 39.01"/><polygon class="cls-4" points="142.56 150.57 142.84 148.44 136.86 146.13 136.59 148.26 119.12 141.52 117.19 156.69 145.32 167.55 147.26 152.38 142.56 150.57"/><polyline class="cls-4" points="125.02 143.8 127.16 139.77 154.51 150.33 145.34 167.56 118 157"/><polygon class="cls-4" points="39.03 38.14 39.3 36.01 33.32 33.7 33.05 35.83 15.59 29.09 13.65 44.26 41.78 55.12 43.72 39.95 39.03 38.14"/><polyline class="cls-4" points="21.48 31.37 23.63 27.34 50.97 37.9 41.81 55.13 14.46 44.57"/><circle class="cls-4" cx="98.77" cy="188.34" r="4.18"/><circle class="cls-4" cx="111.02" cy="190.78" r="4.18"/><path class="cls-4" d="M102.87,189.16c0-1.95,1.3-2.39,2.24-2.31,1.23.1,1.79.83,1.79,2.85"/><path class="cls-4" d="M96.19,185.05s7.84-4.77,10.94-6.26,5.94-1.07,5.94,1.27v1.27"/><path class="cls-4" d="M115.2,189.22s7.83-4.77,10.93-6.26,6-1.07,6,1.27v1.27"/><polygon class="cls-6" points="3.71 179.56 29.21 209.51 48.97 192.69 3.71 179.56"/><polygon class="cls-7" points="19.2 189.57 38.02 195.03 29.81 202.03 19.2 189.57"/><line class="cls-4" x1="7.42" y1="183.92" x2="8.85" y2="182.71"/><line class="cls-4" x1="8.87" y1="185.62" x2="10.3" y2="184.41"/><line class="cls-4" x1="10.32" y1="187.33" x2="11.75" y2="186.11"/><line class="cls-4" x1="11.77" y1="189.03" x2="13.2" y2="187.81"/><line class="cls-4" x1="13.22" y1="190.73" x2="14.65" y2="189.51"/><line class="cls-4" x1="14.67" y1="192.43" x2="16.1" y2="191.22"/><line class="cls-4" x1="16.12" y1="194.13" x2="17.55" y2="192.92"/><line class="cls-4" x1="17.57" y1="195.84" x2="19" y2="194.62"/><line class="cls-4" x1="19.02" y1="197.54" x2="20.44" y2="196.32"/><line class="cls-4" x1="20.47" y1="199.24" x2="21.89" y2="198.02"/><line class="cls-4" x1="21.92" y1="200.94" x2="23.34" y2="199.73"/><line class="cls-4" x1="23.37" y1="202.64" x2="24.79" y2="201.43"/><line class="cls-4" x1="24.81" y1="204.35" x2="26.24" y2="203.13"/><line class="cls-4" x1="26.26" y1="206.05" x2="27.69" y2="204.83"/><line class="cls-4" x1="27.71" y1="207.75" x2="29.14" y2="206.53"/><line class="cls-4" x1="31.78" y1="207.32" x2="30.57" y2="205.89"/><line class="cls-4" x1="33.74" y1="205.65" x2="32.53" y2="204.22"/><line class="cls-4" x1="35.7" y1="203.98" x2="34.49" y2="202.55"/><line class="cls-4" x1="37.67" y1="202.31" x2="36.45" y2="200.88"/><line class="cls-4" x1="39.63" y1="200.64" x2="38.41" y2="199.21"/><line class="cls-4" x1="41.59" y1="198.97" x2="40.37" y2="197.54"/><line class="cls-4" x1="43.55" y1="197.3" x2="42.34" y2="195.87"/><line class="cls-4" x1="45.51" y1="195.63" x2="44.3" y2="194.2"/><polygon class="cls-6" points="182.4 44.25 160.27 76.77 181.72 91.37 182.4 44.25"/><polygon class="cls-7" points="167.64 75.37 176.84 61.85 176.56 81.44 167.64 75.37"/><line class="cls-4" x1="179.17" y1="48.99" x2="180.72" y2="50.04"/><line class="cls-4" x1="177.91" y1="50.84" x2="179.46" y2="51.89"/><line class="cls-4" x1="176.66" y1="52.69" x2="178.21" y2="53.74"/><line class="cls-4" x1="175.4" y1="54.53" x2="176.95" y2="55.59"/><line class="cls-4" x1="174.14" y1="56.38" x2="175.69" y2="57.44"/><line class="cls-4" x1="172.88" y1="58.23" x2="174.43" y2="59.29"/><line class="cls-4" x1="171.63" y1="60.08" x2="173.18" y2="61.13"/><line class="cls-4" x1="170.37" y1="61.93" x2="171.92" y2="62.98"/><line class="cls-4" x1="169.11" y1="63.78" x2="170.66" y2="64.83"/><line class="cls-4" x1="167.85" y1="65.62" x2="169.4" y2="66.68"/><line class="cls-4" x1="166.6" y1="67.47" x2="168.15" y2="68.53"/><line class="cls-4" x1="165.34" y1="69.32" x2="166.89" y2="70.37"/><line class="cls-4" x1="164.08" y1="71.17" x2="165.63" y2="72.22"/><line class="cls-4" x1="162.82" y1="73.02" x2="164.37" y2="74.07"/><line class="cls-4" x1="161.57" y1="74.86" x2="163.12" y2="75.92"/><line class="cls-4" x1="163.06" y1="78.67" x2="164.12" y2="77.12"/><line class="cls-4" x1="165.19" y1="80.12" x2="166.25" y2="78.57"/><line class="cls-4" x1="167.32" y1="81.57" x2="168.38" y2="80.02"/><line class="cls-4" x1="169.45" y1="83.02" x2="170.51" y2="81.47"/><line class="cls-4" x1="171.58" y1="84.47" x2="172.64" y2="82.92"/><line class="cls-4" x1="173.71" y1="85.92" x2="174.77" y2="84.37"/><line class="cls-4" x1="175.84" y1="87.37" x2="176.9" y2="85.82"/><line class="cls-4" x1="177.97" y1="88.82" x2="179.03" y2="87.27"/><line class="cls-4" x1="100.43" y1="9.64" x2="101.95" y2="8.54"/><line class="cls-4" x1="101.75" y1="11.45" x2="103.26" y2="10.36"/><line class="cls-4" x1="103.06" y1="13.27" x2="104.57" y2="12.17"/><line class="cls-4" x1="104.37" y1="15.08" x2="105.88" y2="13.98"/><line class="cls-4" x1="105.68" y1="16.89" x2="107.19" y2="15.79"/><line class="cls-4" x1="106.99" y1="18.7" x2="108.51" y2="17.6"/><line class="cls-4" x1="108.3" y1="20.51" x2="109.82" y2="19.41"/><line class="cls-4" x1="109.61" y1="22.32" x2="111.13" y2="21.22"/><line class="cls-4" x1="110.92" y1="24.13" x2="112.44" y2="23.03"/><line class="cls-4" x1="112.23" y1="25.94" x2="113.75" y2="24.84"/><line class="cls-4" x1="113.54" y1="27.75" x2="115.06" y2="26.65"/><line class="cls-4" x1="114.85" y1="29.56" x2="116.37" y2="28.47"/><line class="cls-4" x1="116.16" y1="31.38" x2="117.68" y2="30.28"/><line class="cls-4" x1="117.47" y1="33.19" x2="118.99" y2="32.09"/><line class="cls-4" x1="118.78" y1="35" x2="120.3" y2="33.9"/><rect class="cls-4" x="94.09" y="17.96" width="35.49" height="5.5" transform="translate(63.05 -82.04) rotate(54.11)"/><line class="cls-4" x1="171.29" y1="143.43" x2="172.73" y2="142.23"/><line class="cls-4" x1="172.72" y1="145.15" x2="174.16" y2="143.94"/><line class="cls-4" x1="174.16" y1="146.86" x2="175.6" y2="145.66"/><line class="cls-4" x1="175.59" y1="148.57" x2="177.03" y2="147.37"/><line class="cls-4" x1="177.03" y1="150.29" x2="178.46" y2="149.09"/><line class="cls-4" x1="178.46" y1="152" x2="179.9" y2="150.8"/><line class="cls-4" x1="179.9" y1="153.72" x2="181.33" y2="152.52"/><line class="cls-4" x1="181.33" y1="155.43" x2="182.77" y2="154.23"/><line class="cls-4" x1="182.76" y1="157.15" x2="184.2" y2="155.94"/><line class="cls-4" x1="184.2" y1="158.86" x2="185.64" y2="157.66"/><line class="cls-4" x1="185.63" y1="160.58" x2="187.07" y2="159.37"/><line class="cls-4" x1="187.07" y1="162.29" x2="188.51" y2="161.09"/><line class="cls-4" x1="188.5" y1="164" x2="189.94" y2="162.8"/><line class="cls-4" x1="189.94" y1="165.72" x2="191.37" y2="164.52"/><line class="cls-4" x1="191.37" y1="167.43" x2="192.81" y2="166.23"/><rect class="cls-4" x="165.7" y="150.92" width="35.49" height="5.5" transform="translate(183.59 -85.63) rotate(50.08)"/><circle class="cls-4" cx="93.84" cy="117.39" r="17.44" transform="translate(-55.52 100.73) rotate(-45)"/><line class="cls-4" x1="76.4" y1="117.39" x2="111.25" y2="117.39"/><path class="cls-4" d="M97.08,100.25a17.44,17.44,0,0,0,0,34.27"/><path class="cls-4" d="M80.61,106c0,2.22,1.34,4,5.48,4,4.58,0,5.5-4.37,13.06-4.7,3.56-.16,7.16,1.68,10,3.67"/><path class="cls-4" d="M109.13,125.77c-2.82,2-6.42,3.83-10,3.68-7.56-.34-8.48-4.71-13.06-4.71-4.14,0-5.45,1.78-5.48,4"/><path class="cls-4" d="M87.38,152.08l6.05,4.86s2.21,1.35,1.13,2.69-2.91-.33-2.91-.33l-8.79-7.06s-3.09-2.08-1.51-4,3.16-1,4.33,0L99,158.84s2.73,2.31.77,4.76a3.27,3.27,0,0,1-5,.52l-9.93-8"/><polygon class="cls-4" points="151.2 100.1 133.2 114.74 163.19 122.19 179.86 102.93 151.2 100.1"/><path class="cls-4" d="M140.24,116.53,143,127.26a24.56,24.56,0,0,0,18.88,2.53c11.28-2.85,15.41-11.2,15.41-11.2l-2.45-9.71"/><path class="cls-4" d="M155.67,109.57l-16,5.3s-5.33,1.6-4.28,5.76"/><polygon class="cls-4" points="134.74 127.15 135.36 120.6 139.01 126.07 134.74 127.15"/><path class="cls-4" d="M159.06,170.54h6.31a0,0,0,0,1,0,0v21.06a1.22,1.22,0,0,1-1.22,1.22h-3.86a1.22,1.22,0,0,1-1.22-1.22V170.54A0,0,0,0,1,159.06,170.54Z" transform="translate(234.52 -50.9) rotate(59.03)"/><path class="cls-4" d="M176,172.81l-5.81.44,1.63,2.7,1.62,2.7,3.12-4.91A.61.61,0,0,0,176,172.81Z"/><line class="cls-4" x1="154.51" y1="182.63" x2="157.76" y2="188.04"/><line class="cls-4" x1="155.81" y1="181.85" x2="159.05" y2="187.26"/><line class="cls-4" x1="174.94" y1="172.88" x2="175.97" y2="174.59"/><line class="cls-4" x1="171.77" y1="175.95" x2="157.43" y2="184.56"/><line class="cls-4" x1="170.81" y1="174.36" x2="156.47" y2="182.96"/><line class="cls-4" x1="172.72" y1="177.54" x2="158.38" y2="186.15"/><path class="cls-4" d="M102.64,57.48s-16.1,8.26-24,28.63"/><path class="cls-4" d="M102.64,57.48s-5.33,17.29-24,28.63"/><line class="cls-4" x1="95.95" y1="62.11" x2="99.23" y2="64.86"/><path class="cls-4" d="M111.09,47.39c-7.32,2.45-11.8,7.28-8.45,10.09"/><path class="cls-4" d="M111.1,47.4C110,55,106,60.29,102.64,57.48"/><path class="cls-4" d="M217.62,147.15a.91.91,0,0,0-1.1,0,1.71,1.71,0,0,0-.64,1,2.12,2.12,0,0,0,.05,1.47,1.38,1.38,0,0,0,1.14.83c.88,0,1.45-.93,1.58-1.8a1.87,1.87,0,0,0-.26-1.43.88.88,0,0,0-1.3-.11"/><path class="cls-4" d="M248.84,160.43a.77.77,0,0,0-.89,0,2.37,2.37,0,0,0-.6.73,2.22,2.22,0,0,0-.34.81,1.42,1.42,0,0,0,1.44,1.53,1.92,1.92,0,0,0,1.72-1.43,1.57,1.57,0,0,0-.06-1.11.94.94,0,0,0-.92-.54,1.51,1.51,0,0,0-.77.44"/><path class="cls-4" d="M233.34,160.8s0-.1,0-.08-.06.09-.06.14l.12,4"/><path class="cls-4" d="M234.69,160.2v3.9"/><path class="cls-4" d="M233.58,162.66a3.57,3.57,0,0,1,1.34.08"/><path class="cls-4" d="M239.93,178.5V182"/><path class="cls-4" d="M240,178.42a26.83,26.83,0,0,0,2.14,3.32l0-3a2.65,2.65,0,0,1,.18-1.16"/><path class="cls-4" d="M256.74,174.26a28.33,28.33,0,0,0,.3,3.9"/><path class="cls-4" d="M257.11,174.48c.4,1.09.8,2.18,1.19,3.27a6.6,6.6,0,0,0,.38-2.32c0-.51-.06-1.09.31-1.44"/><path class="cls-4" d="M260.28,173.92q-.09,2.24,0,4.47"/><path class="cls-4" d="M261.79,173.92a27.27,27.27,0,0,1-.09,4.24"/><path class="cls-4" d="M260.24,176.28l1.9.23"/><path class="cls-4" d="M210.47,165.67a17,17,0,0,1,0,3.9"/><path class="cls-4" d="M211.81,165.67V170"/><path class="cls-4" d="M210.48,168l1.33.14"/><path class="cls-4" d="M217.29,183.63a1,1,0,0,0-1.07.05,1.62,1.62,0,0,0-.59.95,2,2,0,0,0,.55,2.06,1.39,1.39,0,0,0,2-.19,2,2,0,0,0,.19-1.42,2.92,2.92,0,0,0-.38-1.2,1.25,1.25,0,0,0-1-.62"/><polygon class="cls-4" points="220.77 175.93 213.77 167.61 219.52 158.38 230.07 161 230.85 171.84 220.77 175.93"/><line class="cls-4" x1="219.52" y1="158.38" x2="217.23" y2="152.07"/><line class="cls-4" x1="220.77" y1="175.93" x2="219.08" y2="182.39"/><line class="cls-4" x1="230.85" y1="171.84" x2="240.3" y2="176.43"/><polyline class="cls-4" points="240.3 176.43 249.75 171.84 255.36 176.51"/><line class="cls-4" x1="249.79" y1="165.56" x2="249.74" y2="171.84"/><path class="cls-4" d="M46.4,118c-.41.82-1.95.89-3.45.15s-2.37-2-2-2.83,2-.88,3.44-.14S46.8,117.22,46.4,118Z"/><path class="cls-4" d="M40.89,115.59a4.64,4.64,0,0,1-3.08,6.21"/><path class="cls-4" d="M46.28,118.25a4.65,4.65,0,0,0-3.08,6.22"/><path class="cls-4" d="M37.81,121.8a4.23,4.23,0,0,0,2,2.82,3.9,3.9,0,0,0,3.43-.15"/><polygon class="cls-4" points="39.77 124.62 38.95 124.22 37.17 129.89 40.59 125.03 39.77 124.62"/><path class="cls-4" d="M242,49.82c-1.54.89-5.87-3.72-9.66-10.3s-5.6-12.63-4.06-13.53,5.88,3.73,9.66,10.3S243.59,48.93,242,49.82Z"/><path class="cls-4" d="M242,49.82l-13.26,7.64A13.76,13.76,0,0,1,210,52.41h0a13.76,13.76,0,0,1,5.06-18.78L228.32,26"/><path class="cls-4" d="M211.15,54.1c-2.75.6-7.83,2.63-9.65,6.87s-1.81,5.78-1.81,5.78a17.2,17.2,0,0,1-4.77-5.66,17.16,17.16,0,0,1-2.5-7s1.34.77,5.91,1.33,8.88-2.82,10.78-4.9"/><path class="cls-4" d="M225.1,27.87c4.77-2.94,10.53-8.5,9.15-10.9a1.4,1.4,0,0,0-1.36-.75c-3.35-.1-9.47,4.61-11.94,8.38a88.76,88.76,0,0,0-5,8.53"/><path class="cls-4" d="M230.25,26.5c3.54-2.85,7.78-7.22,5.84-10.59-3-5.28-13.37,2.12-16.92,7.53a74.39,74.39,0,0,0-6.59,12"/><path class="cls-4" d="M238.8,51.67c4.94-2.65,12.64-4.85,14-2.45a1.42,1.42,0,0,1,0,1.56c-1.6,2.94-8.74,5.87-13.24,6.12a88.42,88.42,0,0,1-9.89,0"/><path class="cls-4" d="M242.57,47.9c4.25-1.63,10.15-3.11,12.09.26,3,5.29-8.54,10.51-15,10.86A73.56,73.56,0,0,1,226,58.68"/><polygon class="cls-4" points="127.65 68.4 116.56 76.62 116.52 91.32 130.75 97.77 141.83 89.55 141.88 74.85 127.65 68.4"/><line class="cls-4" x1="116.56" y1="76.62" x2="130.79" y2="83.07"/><line class="cls-4" x1="141.88" y1="74.85" x2="130.79" y2="83.07"/><line class="cls-4" x1="130.75" y1="97.77" x2="130.79" y2="83.07"/><line class="cls-7" x1="127.65" y1="68.4" x2="127.65" y2="70.52"/><line class="cls-8" x1="127.64" y1="74.01" x2="127.62" y2="79.24"/><line class="cls-7" x1="127.62" y1="80.98" x2="127.61" y2="83.1"/><line class="cls-7" x1="116.52" y1="91.32" x2="118.23" y2="90.06"/><line class="cls-9" x1="120.79" y1="88.16" x2="124.63" y2="85.31"/><line class="cls-7" x1="125.91" y1="84.37" x2="127.61" y2="83.1"/><line class="cls-7" x1="141.83" y1="89.55" x2="139.9" y2="88.68"/><line class="cls-10" x1="136.45" y1="87.11" x2="131.27" y2="84.76"/><line class="cls-7" x1="129.54" y1="83.98" x2="127.61" y2="83.1"/><path class="cls-4" d="M113,72.91a19.58,19.58,0,0,1-1.57,3.3"/><path class="cls-4" d="M113,72.87a9.63,9.63,0,0,0,2,4"/><path class="cls-4" d="M112,75.32a5.36,5.36,0,0,0,1.78.24"/><path class="cls-4" d="M127.63,66.1l0,.79a4.71,4.71,0,0,1,0-1.45,1.61,1.61,0,0,1,.76-1.18.34.34,0,0,1,.35,0,.34.34,0,0,1,.1.16,1.21,1.21,0,0,1-.64,1.47c.48.1.93-.42,1.4-.3a.68.68,0,0,1,.38.92,1.08,1.08,0,0,1-.92.57,2.78,2.78,0,0,1-1.1-.23"/><path class="cls-4" d="M145.26,73.4a1.58,1.58,0,0,0-.77,2.91,2.25,2.25,0,0,0,1.1.31,3.51,3.51,0,0,0,1.68-.38"/><path class="cls-3" d="M196.76,186.65a4.27,4.27,0,0,1-.47,2.7c-.49.83-1,1.66-1.49,2.48a.74.74,0,0,0,.65.28h.85a3.57,3.57,0,0,1,3,1.93,3.76,3.76,0,0,1,.17,2.59,8.18,8.18,0,0,1-1.19,2.4l-1.51,2.09a1.16,1.16,0,0,1-.48.4,1.1,1.1,0,0,1-1.24-.14l-1.5-3.58a32.92,32.92,0,0,1-1.33-3.6.93.93,0,0,1-.75-.48.55.55,0,0,1,0-.42,4.8,4.8,0,0,1,.28-.55,48.41,48.41,0,0,0-2.55-6,1.82,1.82,0,0,1-1.71-.3.45.45,0,0,1,0-.29.73.73,0,0,0,0-.32,1.94,1.94,0,0,1,.92-.85,4.14,4.14,0,0,1,.76-.23c.46-.12.75-.2.88-.25a7,7,0,0,1,2.32-.27c1.89.11,3.13.48,3.73,1.11A2.68,2.68,0,0,1,196.76,186.65Zm.61,8.43a3.23,3.23,0,0,0-.15-.47,1.89,1.89,0,0,0-.91-.94,5,5,0,0,0-1.61.09.88.88,0,0,0-.29.2c.07.14.15.29.23.46s.29.77.49,1.42a13.29,13.29,0,0,0,.51,1.44,4.57,4.57,0,0,0,.72,1.16,3.59,3.59,0,0,1,.51-1,3.21,3.21,0,0,0,.49-.92A2.82,2.82,0,0,0,197.37,195.08Zm-3.08-8.6a1.79,1.79,0,0,0-1.81-.64,4.73,4.73,0,0,1-.66,0,.89.89,0,0,0-.5,0,.86.86,0,0,0-.17.13c.09.25.2.5.32.77s.47,1,.92,1.83.7,1.41.89,1.87a1,1,0,0,0,.34-.42l.23-.4a3.06,3.06,0,0,0,.68-1.5A2.22,2.22,0,0,0,194.29,186.48Z"/></svg>